<svg xmlns="http://www.w3.org/2000/svg" width="206" height="100" viewBox="0 0 206 100" fill="none"><g clip-path="url(#clip0_3967_52)"><path d="M194 0H12C5.37258 0 0 5.37258 0 12V88C0 94.6274 5.37258 100 12 100H194C200.627 100 206 94.6274 206 88V12C206 5.37258 200.627 0 194 0Z" fill="white"></path><g clip-path="url(#clip1_3967_52)"><path d="M102.693 15.0063C102.767 15.0063 102.841 15.0991 102.952 15.266C103.045 15.4144 110.854 24.782 120.315 36.0786C129.775 47.3753 137.492 56.6686 137.454 56.7243C137.436 56.7799 129.905 62.9569 120.723 70.4324C111.541 77.9079 103.731 84.2704 103.379 84.5671C102.767 85.068 102.73 85.0865 102.507 84.8639C102.377 84.7341 94.5494 78.3345 85.1077 70.6364C75.666 62.9384 67.9679 56.5944 68.005 56.5017C68.0421 56.4089 75.7958 47.1527 85.2746 35.9117C94.7535 24.6707 102.507 15.3773 102.544 15.2289C102.581 15.0805 102.637 15.0063 102.693 15.0063Z" fill="#00BEF2"></path><path d="M101.414 73.8651C100.338 73.4755 99.0393 72.3625 98.5013 71.3238C97.8336 70.0438 97.8892 68.0405 98.6312 66.4452C99.2062 65.2581 99.2062 65.221 98.8352 64.9427C98.6312 64.7943 96.1641 63.4217 93.3817 61.9192C90.5993 60.4167 88.1693 59.0996 88.0023 59.0069C87.7797 58.877 87.4087 59.0069 86.741 59.4335C84.5707 60.8062 82.3076 60.6578 80.5269 59.0069C79.247 57.8197 78.876 56.985 78.876 55.2784C78.876 53.6275 79.2099 52.7743 80.2672 51.7169C81.6955 50.2886 83.6061 49.8063 85.4425 50.4185C86.4442 50.7524 86.4627 50.7523 87.0934 50.2701C87.8354 49.7136 93.7898 44.2786 96.6649 41.5518L98.6497 39.6597L98.0562 38.4169C96.8504 35.9127 97.4626 33.1303 99.5772 31.4608C100.727 30.5519 101.581 30.2737 103.231 30.2737C107.09 30.2737 109.779 34.3175 108.333 37.9346C107.943 38.9363 107.943 38.9549 108.314 39.567C108.629 40.1049 113.99 46.5787 116.828 49.8805C117.329 50.4556 117.886 50.9193 118.071 50.9193C118.257 50.9193 118.887 50.7338 119.481 50.5112C122.245 49.4168 125.157 50.6411 126.307 53.3864C127.049 55.1486 126.4 57.5229 124.823 58.9512C123.71 59.9529 122.894 60.2683 121.41 60.2683C120.371 60.2683 119.982 60.157 118.887 59.5634C118.071 59.1182 117.44 58.8956 117.181 58.9698C116.736 59.0811 109.891 63.7741 108.37 64.9984C107.442 65.7589 107.368 66.0372 107.85 67.1687C108.314 68.2816 108.258 70.0253 107.739 71.1197C107.164 72.3254 105.736 73.5312 104.493 73.9021C103.231 74.2546 102.471 74.2546 101.414 73.8651ZM101.729 53.4235V42.8503L101.135 42.0341C100.801 41.5889 100.486 41.2179 100.43 41.2179C100.189 41.2179 88.2064 52.1065 88.2064 52.3291C88.2064 52.3847 88.3919 52.9412 88.6145 53.5348C88.8371 54.1469 89.004 55.0187 88.9855 55.5196C88.9669 56.0204 88.9669 56.5769 88.9669 56.7624C88.9855 57.189 92.9921 59.7489 99.0022 63.2176C100.653 64.1822 101.228 64.4233 101.432 64.2564C101.673 64.0524 101.729 61.9934 101.729 53.4235ZM106.812 62.7724C114.751 57.7826 116.235 56.7809 116.327 56.41C116.383 56.1874 116.457 55.3155 116.476 54.4437L116.531 52.8855L112.488 48.0812C108.147 42.943 106.552 41.1993 106.181 41.1993C106.051 41.1993 105.402 41.5703 104.734 42.0155L103.51 42.8317L103.565 53.3864C103.621 62.8466 103.695 64.4419 104.048 64.4419C104.085 64.4604 105.346 63.6999 106.812 62.7724Z" fill="white" stroke="white" stroke-width="0.5" stroke-linecap="round" stroke-linejoin="round"></path></g></g><defs><clipPath id="clip0_3967_52"><rect width="206" height="100" fill="white"></rect></clipPath><clipPath id="clip1_3967_52"><rect width="69.468" height="70" fill="white" transform="translate(68 15)"></rect></clipPath></defs></svg>