<svg xmlns="http://www.w3.org/2000/svg" width="206" height="100" viewBox="0 0 206 100" fill="none"><g clip-path="url(#clip0_4209_88)"><path d="M194 0H12C5.37258 0 0 5.37258 0 12V88C0 94.6274 5.37258 100 12 100H194C200.627 100 206 94.6274 206 88V12C206 5.37258 200.627 0 194 0Z" fill="white"></path><g clip-path="url(#clip1_4209_88)"><path d="M94.702 78.55C94.5053 78.5506 94.3127 78.4932 94.1485 78.3848C93.9843 78.2765 93.8557 78.1221 93.7789 77.9409C93.7022 77.7598 93.6806 77.56 93.7169 77.3666C93.7532 77.1733 93.8458 76.9949 93.983 76.854C97.285 73.445 99.914 66.443 100.845 58.583C100.86 58.4521 100.9 58.3254 100.964 58.2102C101.028 58.095 101.115 57.9936 101.218 57.9118C101.321 57.83 101.44 57.7695 101.566 57.7336C101.693 57.6977 101.826 57.6873 101.957 57.7028C102.087 57.7184 102.214 57.7596 102.329 57.8242C102.444 57.8888 102.545 57.9754 102.626 58.0791C102.707 58.1829 102.767 58.3016 102.802 58.4286C102.837 58.5556 102.847 58.6882 102.831 58.819C101.836 67.219 99.065 74.482 95.419 78.247C95.326 78.343 95.2145 78.4193 95.0913 78.4714C94.9682 78.5234 94.8358 78.5502 94.702 78.55Z" fill="#0D51D4"></path><path d="M105.301 64.05C105.156 64.0502 105.012 64.0188 104.881 63.9579C104.749 63.8971 104.632 63.8083 104.538 63.6978C104.444 63.5872 104.375 63.4575 104.336 63.3177C104.297 63.1778 104.29 63.0312 104.313 62.888C105.401 56.262 105.387 49.473 104.276 44.727C104.253 44.623 104.231 44.535 104.209 44.447L103.997 43.553C103.908 43.078 103.675 42.711 103.349 42.496C103.222 42.4091 103.079 42.3493 102.928 42.3202C102.777 42.2911 102.622 42.2934 102.472 42.327C101.748 42.49 101.286 43.303 101.442 44.14L101.653 44.995L101.663 45.038L101.728 45.304C102.231 47.457 102.496 50.139 102.491 53.054C102.491 53.319 102.385 53.5731 102.198 53.7605C102.01 53.9478 101.756 54.053 101.491 54.053H101.489C101.224 54.0525 100.97 53.9467 100.783 53.7591C100.596 53.5714 100.491 53.317 100.491 53.052C100.496 50.288 100.25 47.765 99.779 45.754L99.714 45.489C99.7091 45.4716 99.7051 45.4539 99.702 45.436L99.487 44.56C99.125 42.622 100.272 40.769 102.034 40.374C102.446 40.2809 102.873 40.2729 103.289 40.3505C103.704 40.428 104.099 40.5895 104.45 40.825C105.227 41.337 105.774 42.18 105.952 43.137L106.15 43.967C106.174 44.061 106.202 44.173 106.226 44.285C107.391 49.257 107.414 56.338 106.286 63.21C106.248 63.4441 106.128 63.657 105.948 63.8109C105.767 63.9648 105.538 64.0495 105.301 64.05ZM100.41 80C100.226 79.9998 100.046 79.9491 99.8897 79.8534C99.7329 79.7577 99.6056 79.6206 99.5216 79.4573C99.4377 79.294 99.4003 79.1107 99.4136 78.9276C99.4269 78.7444 99.4904 78.5685 99.597 78.419C101.209 76.159 102.637 72.762 103.726 68.597C103.793 68.3404 103.959 68.121 104.188 67.987C104.417 67.853 104.69 67.8154 104.947 67.8825C105.203 67.9496 105.423 68.1159 105.557 68.3448C105.691 68.5737 105.728 68.8464 105.661 69.103C104.511 73.501 102.977 77.124 101.225 79.581C101.132 79.7107 101.01 79.8165 100.868 79.8894C100.727 79.9622 100.569 80.0002 100.41 80ZM88.992 77.1C88.7891 77.1006 88.5907 77.0393 88.4234 76.9243C88.2561 76.8093 88.1278 76.6461 88.0556 76.4564C87.9834 76.2667 87.9707 76.0595 88.0192 75.8624C88.0677 75.6652 88.1751 75.4876 88.327 75.353C93.077 71.129 95.803 58.31 94.979 50.1C94.9659 49.9693 94.9786 49.8374 95.0165 49.7116C95.0544 49.5859 95.1167 49.4688 95.1998 49.3671C95.2829 49.2655 95.3852 49.1811 95.5009 49.119C95.6166 49.0569 95.7434 49.0181 95.874 49.005C96.0047 48.9919 96.1367 49.0046 96.2624 49.0425C96.3882 49.0803 96.5052 49.1426 96.6069 49.2257C96.7086 49.3088 96.7929 49.4112 96.855 49.5268C96.9172 49.6425 96.9559 49.7693 96.969 49.9C97.861 58.777 95.077 72.027 89.657 76.847C89.4741 77.0104 89.2373 77.1005 88.992 77.1Z" fill="#0D51D4"></path><path d="M96.1301 43.75C95.9923 43.7501 95.856 43.7218 95.7296 43.6667C95.6033 43.6116 95.4897 43.5311 95.396 43.43C95.3023 43.329 95.2305 43.2097 95.1851 43.0796C95.1397 42.9495 95.1216 42.8114 95.1321 42.674C95.4301 38.762 98.1861 35.477 101.835 34.684C105.809 33.823 109.802 36.067 111.334 40.019C111.429 40.2632 111.424 40.5348 111.321 40.7755C111.218 41.0162 111.024 41.2068 110.782 41.3062C110.539 41.4057 110.267 41.406 110.025 41.3072C109.782 41.2085 109.588 41.0184 109.484 40.778L109.483 40.775C108.296 37.713 105.264 35.985 102.26 36.639C99.4691 37.245 97.3581 39.789 97.1271 42.827C97.1075 43.078 96.994 43.3125 96.8092 43.4835C96.6244 43.6546 96.3819 43.7498 96.1301 43.75ZM106.12 80C105.942 80.0001 105.766 79.9524 105.612 79.8618C105.459 79.7712 105.332 79.641 105.245 79.4848C105.159 79.3286 105.116 79.1521 105.121 78.9736C105.126 78.7951 105.178 78.6212 105.273 78.47C109.381 71.912 111.729 57.891 110.506 47.215C110.49 47.0839 110.5 46.951 110.535 46.8238C110.571 46.6966 110.631 46.5777 110.713 46.474C110.795 46.3703 110.896 46.2837 111.012 46.2194C111.127 46.1551 111.254 46.1143 111.385 46.0993C111.516 46.0843 111.649 46.0955 111.776 46.1321C111.903 46.1688 112.021 46.2302 112.124 46.3128C112.227 46.3954 112.313 46.4976 112.376 46.6135C112.44 46.7294 112.479 46.8567 112.493 46.988C113.622 56.848 111.864 71.717 106.968 79.532C106.878 79.6754 106.753 79.7937 106.605 79.8755C106.456 79.9574 106.29 80.0002 106.12 80ZM84.7111 72.75C84.4951 72.7515 84.2845 72.6829 84.1108 72.5545C83.9371 72.4261 83.8098 72.2449 83.7479 72.0379C83.686 71.831 83.6929 71.6096 83.7676 71.4069C83.8423 71.2042 83.9807 71.0313 84.1621 70.914C86.2691 69.534 88.1971 66.045 89.4541 61.343C89.4862 61.2142 89.5436 61.0931 89.623 60.9867C89.7024 60.8803 89.8022 60.7908 89.9165 60.7234C90.0308 60.656 90.1574 60.612 90.2889 60.594C90.4204 60.5761 90.5542 60.5844 90.6825 60.6187C90.8107 60.6529 90.9308 60.7124 91.0358 60.7935C91.1409 60.8747 91.2287 60.9759 91.2942 61.0914C91.3597 61.2068 91.4015 61.3342 91.4173 61.4659C91.4331 61.5977 91.4225 61.7314 91.3861 61.859C90.5741 64.899 88.6991 70.334 85.2581 72.588C85.0952 72.6936 84.9052 72.7498 84.7111 72.75ZM91.5861 56.8C91.4483 56.8001 91.312 56.7718 91.1856 56.7167C91.0593 56.6616 90.9457 56.5811 90.852 56.48C90.7583 56.379 90.6865 56.2597 90.6411 56.1296C90.5957 55.9995 90.5776 55.8614 90.5881 55.724C90.7981 52.974 90.6861 50.474 90.2741 48.684C90.1935 48.3326 90.1007 47.984 89.9961 47.639C89.6091 46.363 89.4211 45.203 89.4201 44.095C89.4191 39.91 91.0981 35.98 94.0291 33.311C94.1262 33.2225 94.2398 33.1541 94.3634 33.1095C94.4869 33.065 94.6181 33.0452 94.7493 33.0514C94.8805 33.0575 95.0092 33.0894 95.1281 33.1453C95.2469 33.2011 95.3537 33.2799 95.4421 33.377C95.5305 33.4741 95.599 33.5877 95.6435 33.7113C95.6881 33.8348 95.7079 33.966 95.7017 34.0972C95.6956 34.2284 95.6637 34.3571 95.6078 34.476C95.5519 34.5948 95.4732 34.7015 95.3761 34.79C92.8611 37.081 91.4191 40.472 91.4201 44.095C91.4201 45.004 91.5811 45.974 91.9101 47.061C92.0261 47.446 92.1301 47.837 92.2221 48.236C92.6861 50.246 92.8101 52.888 92.5821 55.877C92.5627 56.128 92.4494 56.3624 92.2648 56.5335C92.0802 56.7046 91.8378 56.7997 91.5861 56.8Z" fill="#0D51D4"></path><path d="M116.112 53.9C115.849 53.9 115.597 53.7965 115.409 53.6117C115.222 53.427 115.115 53.176 115.112 52.913C115.06 48.768 114.648 45.025 113.923 42.088C113.876 41.8962 113.825 41.7052 113.772 41.515C113.628 40.7878 113.421 40.0744 113.154 39.383C111.131 34.21 105.859 31.272 100.619 32.387C100.49 32.4167 100.356 32.4203 100.225 32.3977C100.094 32.3751 99.9694 32.3267 99.8576 32.2553C99.7457 32.184 99.6492 32.0911 99.5736 31.9821C99.498 31.8731 99.4449 31.7501 99.4173 31.6203C99.3897 31.4906 99.3882 31.3566 99.4129 31.2263C99.4376 31.0959 99.4879 30.9718 99.561 30.8611C99.6342 30.7504 99.7286 30.6554 99.8388 30.5816C99.949 30.5077 100.073 30.4565 100.203 30.431C106.407 29.111 112.635 32.566 115.013 38.644C115.322 39.439 115.557 40.244 115.716 41.051C115.758 41.187 115.813 41.398 115.866 41.613C116.627 44.692 117.058 48.592 117.113 52.888C117.116 53.1532 117.014 53.4087 116.829 53.5987C116.644 53.7886 116.391 53.8973 116.126 53.901L116.112 53.9ZM113.256 77.1C113.082 77.0996 112.911 77.054 112.761 76.9676C112.61 76.8811 112.484 76.7569 112.396 76.6071C112.308 76.4573 112.26 76.2871 112.258 76.1133C112.256 75.9395 112.299 75.7681 112.383 75.616C114.377 72.015 115.894 66.341 116.545 60.047C116.581 59.7905 116.715 59.5579 116.919 59.3983C117.124 59.2387 117.382 59.1644 117.639 59.1911C117.897 59.2178 118.134 59.3433 118.301 59.5414C118.468 59.7394 118.552 59.9945 118.535 60.253C117.847 66.9 116.284 72.701 114.133 76.585C114.046 76.7413 113.919 76.8715 113.765 76.962C113.61 77.0526 113.435 77.1002 113.256 77.1ZM81.856 69.85C81.6326 69.8511 81.4154 69.7773 81.2389 69.6405C81.0624 69.5037 80.9369 69.3117 80.8823 69.0951C80.8278 68.8786 80.8473 68.65 80.9379 68.4459C81.0284 68.2418 81.1848 68.0739 81.382 67.969C85.165 65.938 87.425 54.045 86.258 49.399C86.2112 49.2236 86.1575 49.0501 86.097 48.879C86.0537 48.755 86.0353 48.6236 86.0428 48.4925C86.0502 48.3613 86.0835 48.2329 86.1406 48.1146C86.1977 47.9963 86.2776 47.8904 86.3756 47.803C86.4736 47.7156 86.5879 47.6483 86.712 47.605C86.836 47.5617 86.9673 47.5433 87.0985 47.5508C87.2296 47.5583 87.358 47.5915 87.4763 47.6487C87.5946 47.7058 87.7005 47.7856 87.788 47.8836C87.8754 47.9817 87.9427 48.096 87.986 48.22C88.073 48.469 88.147 48.706 88.199 48.91C89.567 54.356 87.083 67.179 82.33 69.73C82.1844 69.8088 82.0215 69.85 81.856 69.85Z" fill="#0D51D4"></path><path d="M86.1381 43.75C85.9975 43.7503 85.8584 43.7209 85.73 43.6638C85.6015 43.6067 85.4865 43.5231 85.3925 43.4185C85.2985 43.314 85.2277 43.1908 85.1845 43.057C85.1414 42.9232 85.1269 42.7818 85.1421 42.642C86.0281 34.453 92.0091 27.84 100.024 26.187C107.774 24.587 115.733 28.093 119.825 34.908C119.893 35.0206 119.937 35.1454 119.957 35.2753C119.976 35.4052 119.97 35.5376 119.938 35.6651C119.906 35.7925 119.849 35.9123 119.771 36.0178C119.693 36.1234 119.595 36.2124 119.482 36.28C119.369 36.3476 119.245 36.3923 119.115 36.4116C118.985 36.431 118.852 36.4245 118.725 36.3927C118.598 36.3608 118.478 36.3042 118.372 36.226C118.267 36.1478 118.178 36.0496 118.11 35.937C114.456 29.851 107.348 26.72 100.428 28.146C93.2661 29.623 87.9231 35.535 87.1311 42.857C87.1047 43.1021 86.9888 43.3288 86.8055 43.4936C86.6222 43.6584 86.3846 43.7497 86.1381 43.75ZM118.967 74.201C118.804 74.201 118.643 74.161 118.499 74.0845C118.354 74.008 118.231 73.8974 118.139 73.7622C118.048 73.6271 117.991 73.4716 117.973 73.3092C117.955 73.1469 117.978 72.9827 118.038 72.831C120.847 65.776 121.673 52.091 119.843 42.947C119.792 42.6873 119.846 42.4178 119.993 42.1977C120.14 41.9776 120.368 41.8247 120.628 41.7727C120.887 41.7207 121.157 41.7737 121.377 41.9202C121.598 42.0666 121.751 42.2946 121.804 42.554C123.73 52.177 122.874 66.09 119.896 73.571C119.74 73.962 119.364 74.201 118.967 74.201Z" fill="#0D51D4"></path><path d="M79.0001 64.05C78.7999 64.0499 78.6044 63.9897 78.4388 63.8772C78.2733 63.7648 78.1453 63.6052 78.0714 63.4192C77.9975 63.2331 77.9811 63.0292 78.0244 62.8338C78.0677 62.6384 78.1686 62.4604 78.3141 62.323C81.2311 59.568 81.3871 52.582 80.6491 49.765C80.5131 49.245 80.3261 48.734 80.1291 48.193C79.7581 47.177 79.3751 46.126 79.3131 44.946C78.7061 33.333 86.8941 22.818 98.3591 20.485C103.03 19.536 107.819 19.985 112.209 21.785C112.455 21.8857 112.65 22.0797 112.752 22.3244C112.855 22.5692 112.856 22.8446 112.755 23.09C112.654 23.3355 112.46 23.5309 112.216 23.6333C111.971 23.7357 111.696 23.7367 111.45 23.636C107.431 21.9873 103.012 21.5726 98.7571 22.445C88.2561 24.581 80.7541 34.21 81.3091 44.841C81.3551 45.721 81.6721 46.589 82.0071 47.508C82.2111 48.069 82.4231 48.648 82.5831 49.258C83.4711 52.648 83.2621 60.399 79.6861 63.776C79.5013 63.9523 79.2555 64.0505 79.0001 64.05ZM126.103 49.55C125.854 49.5498 125.614 49.4565 125.429 49.2883C125.245 49.1201 125.131 48.8893 125.108 48.641C124.635 43.442 124.01 39.413 124.004 39.373C123.012 34.8 120.548 30.695 116.889 27.56C116.688 27.3872 116.563 27.1416 116.543 26.877C116.522 26.6125 116.608 26.3507 116.78 26.149C117.14 25.731 117.771 25.682 118.19 26.041C122.183 29.463 124.873 33.947 125.969 39.007C125.986 39.105 126.621 43.198 127.1 48.459C127.113 48.5975 127.096 48.7372 127.052 48.869C127.008 49.0008 126.936 49.1219 126.842 49.2246C126.749 49.3273 126.634 49.4092 126.507 49.4653C126.38 49.5213 126.242 49.5502 126.103 49.55ZM126.105 68.4C125.951 68.4001 125.798 68.3643 125.66 68.2956C125.521 68.2269 125.401 68.1271 125.308 68.0039C125.214 67.8808 125.151 67.7377 125.122 67.5859C125.093 67.4341 125.1 67.2777 125.142 67.129C125.928 64.336 126.176 60.546 125.88 55.863C125.865 55.5991 125.955 55.3399 126.13 55.1421C126.305 54.9442 126.552 54.8238 126.815 54.8072C127.079 54.7905 127.339 54.879 127.538 55.0532C127.736 55.2275 127.858 55.4733 127.876 55.737C128.186 60.645 127.914 64.66 127.067 67.671C127.008 67.8807 126.882 68.0654 126.708 68.197C126.535 68.3286 126.323 68.3999 126.105 68.4Z" fill="#0D51D4"></path></g></g><defs><clipPath id="clip0_4209_88"><rect width="206" height="100" fill="white"></rect></clipPath><clipPath id="clip1_4209_88"><rect width="50" height="60" fill="white" transform="translate(78 20)"></rect></clipPath></defs></svg>