<svg width="206" height="100" viewBox="0 0 206 100" fill="none" xmlns="http://www.w3.org/2000/svg">
<g clip-path="url(#clip0_4550_271)">
<path d="M194 0H12C5.37258 0 0 5.37258 0 12V88C0 94.6274 5.37258 100 12 100H194C200.627 100 206 94.6274 206 88V12C206 5.37258 200.627 0 194 0Z" fill="white"/>
<path d="M99.8835 88.3275C84.2425 88.3275 69.5427 86.429 58.483 82.9775C47.4086 79.526 41.3125 74.9307 41.3125 70.0454C41.3125 65.1561 47.4086 60.5648 58.483 57.1093C69.5427 53.6618 84.2498 51.7593 99.8835 51.7593C115.517 51.7593 130.224 53.6578 141.284 57.1093C152.358 60.5608 158.454 65.1561 158.454 70.0454C158.454 74.9347 152.358 79.526 141.284 82.9815C130.232 86.429 115.524 88.3275 99.8835 88.3275ZM99.8835 51.8507C84.919 51.8507 69.9472 53.6261 58.5566 57.1808C47.5336 60.6164 41.4669 65.1879 41.4669 70.0454C41.4669 74.9029 47.541 79.4704 58.5639 82.91C81.3525 90.0155 118.429 90.0155 141.218 82.91C152.241 79.4704 158.315 74.9029 158.315 70.0454C158.315 65.1879 152.241 60.6204 141.218 57.1808C129.82 53.6261 114.855 51.8507 99.8835 51.8507Z" fill="white"/>
<path d="M99.8926 82.9674C89.3255 82.9674 78.7511 81.7123 70.7064 79.2022C62.8749 76.7595 58.5657 73.5066 58.5657 70.0432C58.5657 66.5799 62.8749 63.323 70.7064 60.8804C86.8033 55.86 112.989 55.86 129.079 60.8804C136.91 63.323 141.227 66.5759 141.227 70.0393C141.227 73.5066 136.91 76.7595 129.079 79.2022C121.034 81.7123 110.467 82.9674 99.8926 82.9674ZM99.8926 57.3177C89.3917 57.3177 78.8909 58.5648 70.8976 61.0551C63.1911 63.458 58.9407 66.6474 58.9407 70.0393C58.9407 73.4312 63.1837 76.6165 70.8976 79.0234C86.8842 84.008 112.901 84.008 128.888 79.0234C136.594 76.6205 140.844 73.4272 140.844 70.0393C140.844 66.6513 136.601 63.462 128.888 61.0591C120.894 58.5648 110.393 57.3177 99.8926 57.3177Z" fill="white"/>
<path d="M99.8745 78.0026C93.4107 78.0026 86.9543 77.2361 82.0348 75.703C77.1962 74.1937 74.5342 72.176 74.5342 70.0193C74.5342 67.8627 77.1962 65.845 82.0348 64.3357C91.8738 61.2695 107.875 61.2695 117.714 64.3357C122.553 65.845 125.215 67.8627 125.215 70.0193C125.215 72.176 122.553 74.1937 117.714 75.703C112.795 77.2361 106.338 78.0026 99.8745 78.0026ZM99.8745 62.4452C93.5504 62.4452 87.2338 63.1958 82.4172 64.6972C77.8286 66.127 75.299 68.0176 75.299 70.0233C75.299 72.0251 77.8286 73.9157 82.4172 75.3455C92.043 78.3482 107.706 78.3482 117.332 75.3455C121.92 73.9157 124.45 72.0251 124.45 70.0193C124.45 68.0176 121.92 66.127 117.332 64.6972C112.523 63.1958 106.199 62.4452 99.8745 62.4452Z" fill="white"/>
<path d="M99.8809 82.9616C89.3138 82.9616 78.7394 81.7065 70.6947 79.1963C62.8631 76.7537 58.554 73.5008 58.554 70.0374C58.554 66.574 62.8631 63.3171 70.6947 60.8745C86.7916 55.8542 112.978 55.8542 129.067 60.8745C136.899 63.3171 141.215 66.57 141.215 70.0334C141.215 73.5008 136.899 76.7537 129.067 79.1963C121.022 81.7065 110.455 82.9616 99.8809 82.9616ZM99.8809 57.3118C89.38 57.3118 78.8791 58.559 70.8858 61.0493C63.1793 63.4522 58.929 66.6415 58.929 70.0334C58.929 73.4253 63.172 76.6107 70.8858 79.0176C86.8724 84.0022 112.889 84.0022 128.876 79.0176C136.582 76.6147 140.833 73.4213 140.833 70.0334C140.833 66.6455 136.59 63.4562 128.876 61.0532C120.883 58.559 110.382 57.3118 99.8809 57.3118Z" fill="#155AE0"/>
<path d="M99.8628 77.9968C93.399 77.9968 86.9426 77.2302 82.0231 75.6971C77.1844 74.1878 74.5225 72.1702 74.5225 70.0135C74.5225 67.8568 77.1844 65.8391 82.0231 64.3299C91.8621 61.2637 107.863 61.2637 117.702 64.3299C122.541 65.8391 125.203 67.8568 125.203 70.0135C125.203 72.1702 122.541 74.1878 117.702 75.6971C112.783 77.2302 106.327 77.9968 99.8628 77.9968ZM99.8628 62.4393C93.5387 62.4393 87.222 63.19 82.4055 64.6913C77.8168 66.1211 75.2872 68.0117 75.2872 70.0175C75.2872 72.0192 77.8168 73.9098 82.4055 75.3396C92.0312 78.3423 107.694 78.3423 117.32 75.3396C121.909 73.9098 124.438 72.0192 124.438 70.0135C124.438 68.0117 121.909 66.1211 117.32 64.6913C112.511 63.19 106.187 62.4393 99.8628 62.4393Z" fill="#155AE0"/>
<g filter="url(#filter0_d_4550_271)">
<path d="M99.8513 31.6525C91.426 31.6525 84.5325 38.8551 84.5325 47.6584C84.5325 58.4623 97.9365 70.6668 98.5109 71.267C99.2769 71.8673 100.234 71.8673 101 71.267C101.766 70.6668 115.17 58.4623 115.17 47.6584C115.17 38.8551 108.277 31.6525 99.8513 31.6525ZM99.8513 55.6613C95.6387 55.6613 92.1919 52.06 92.1919 47.6584C92.1919 43.2567 95.6387 39.6554 99.8513 39.6554C104.064 39.6554 107.511 43.2567 107.511 47.6584C107.511 52.06 104.064 55.6613 99.8513 55.6613Z" fill="#0D51D4"/>
</g>
<g clip-path="url(#clip1_4550_271)">
<path fill-rule="evenodd" clip-rule="evenodd" d="M142.268 27.2786C142.268 35.6305 135.487 42.4108 127.135 42.4108C125.073 42.4108 123.033 41.9892 121.143 41.1743L115.339 45.1216C115.014 45.2308 114.655 45.18 114.374 44.9822C114.092 44.7855 113.921 44.4666 113.913 44.1229L116.131 37.6658C113.484 34.8609 112.003 31.146 112.003 27.2786C112.003 18.9267 118.783 12.1464 127.135 12.1464C135.487 12.1464 142.268 18.9267 142.268 27.2786ZM124.877 33.445C124.48 34.983 125.397 36.559 126.934 36.9708C128.471 37.3826 130.054 36.4768 130.478 34.9452L132.345 35.4457C132.921 35.6002 133.515 35.2576 133.669 34.6815C133.824 34.1054 133.481 33.512 132.905 33.3574L131.809 33.0645L133.627 26.2777C134.549 22.8384 132.519 19.2975 129.094 18.3496C129.077 18.3442 129.059 18.3398 129.041 18.3355C125.584 17.4092 122.025 19.4639 121.099 22.9205C120.547 24.9796 119.74 28.099 119.322 29.7181L118.288 29.4414C117.712 29.2869 117.119 29.6295 116.964 30.2056C116.81 30.7817 117.152 31.3751 117.729 31.5297L124.877 33.445ZM129.721 32.5046L121.41 30.278C121.825 28.6686 122.635 25.5416 123.187 23.4804C123.804 21.1749 126.177 19.8055 128.482 20.4227C130.787 21.0409 132.157 23.4134 131.539 25.7178L129.721 32.5046Z" fill="#27272A"/>
<circle cx="127.617" cy="27.2858" r="12.4516" fill="#27272A"/>
<path d="M131.442 32.0265H122.887C122.406 32.0265 122.112 31.4961 122.365 31.0868L122.956 30.1328C123.204 29.735 123.334 29.2739 123.334 28.804V25.3539C123.334 24.299 123.763 23.3392 124.452 22.6445C125.144 21.9528 126.101 21.5262 127.162 21.5262C128.222 21.5262 129.176 21.9528 129.871 22.6445C130.563 23.3363 130.995 24.2961 130.995 25.3539V28.8069C130.995 29.2767 131.125 29.735 131.373 30.1328L131.964 31.0868C132.217 31.499 131.923 32.0265 131.442 32.0265Z" fill="white"/>
<path d="M129.561 32.0401H124.762C124.762 33.2103 125.71 34.1557 126.878 34.1557H127.446C128.616 34.1557 129.561 33.2103 129.561 32.0401Z" fill="#27272A"/>
<path d="M131.455 32.3263H122.9C122.569 32.3263 122.272 32.1533 122.111 31.8622C121.949 31.5711 121.958 31.231 122.134 30.9485L122.725 29.9945C122.944 29.6399 123.059 29.2335 123.059 28.8185V25.3655C123.059 24.2673 123.485 23.2325 124.264 22.4543C125.042 21.6761 126.074 21.2495 127.175 21.2495C128.276 21.2495 129.311 21.6761 130.086 22.4543C130.864 23.2325 131.294 24.2673 131.294 25.3655V28.8185C131.294 29.2335 131.409 29.6399 131.628 29.9916L132.219 30.9456C132.395 31.2281 132.4 31.5711 132.239 31.8593C132.081 32.1533 131.787 32.3263 131.455 32.3263ZM127.178 21.826C126.229 21.826 125.342 22.1949 124.673 22.8607C124.004 23.5323 123.638 24.4201 123.638 25.3655V28.8185C123.638 29.3431 123.491 29.8532 123.217 30.3L122.627 31.254C122.534 31.401 122.592 31.5336 122.618 31.5855C122.647 31.6345 122.73 31.7527 122.903 31.7527H131.458C131.631 31.7527 131.714 31.6345 131.743 31.5855C131.772 31.5365 131.827 31.401 131.735 31.254L131.144 30.3C130.87 29.8561 130.723 29.3431 130.723 28.8214V25.3655C130.723 24.4201 130.354 23.5294 129.685 22.8607C129.014 22.1949 128.123 21.826 127.178 21.826Z" fill="white"/>
<path d="M127.455 34.4323H126.888C125.562 34.4323 124.484 33.3543 124.484 32.0284C124.484 31.8699 124.613 31.7402 124.772 31.7402H129.571C129.73 31.7402 129.859 31.8699 129.859 32.0284C129.859 33.3543 128.781 34.4323 127.455 34.4323ZM125.083 32.3166C125.222 33.1871 125.98 33.8558 126.888 33.8558H127.455C128.366 33.8558 129.121 33.1871 129.26 32.3166H125.083ZM128.444 22.0354C128.286 22.0354 128.156 21.9057 128.156 21.7472V21.2053C128.156 20.943 128.052 20.698 127.868 20.5106C127.686 20.3291 127.432 20.2253 127.173 20.2253C126.631 20.2253 126.187 20.6663 126.187 21.2082V21.75C126.187 21.9086 126.057 22.0383 125.899 22.0383C125.74 22.0383 125.611 21.9086 125.611 21.75V21.2082C125.611 20.3492 126.311 19.6488 127.173 19.6488C127.582 19.6431 127.986 19.8102 128.274 20.1014C128.571 20.3982 128.732 20.7873 128.732 21.2053V21.7472C128.732 21.9057 128.603 22.0354 128.444 22.0354ZM122.178 27.9326C122.091 27.9326 122.005 27.8923 121.947 27.8202C121.002 26.5837 121.541 25.3385 121.959 24.8514C122.063 24.7304 122.244 24.7159 122.365 24.8197C122.486 24.9235 122.501 25.1051 122.397 25.2261C122.359 25.2722 121.515 26.3041 122.406 27.4714C122.504 27.5983 122.478 27.7799 122.351 27.875C122.299 27.9124 122.238 27.9326 122.178 27.9326Z" fill="white"/>
<path d="M121.22 29.1924C121.134 29.1924 121.047 29.152 120.99 29.08C118.811 26.2265 120.978 23.6295 121.001 23.6035C121.105 23.4825 121.287 23.4681 121.408 23.5718C121.529 23.6756 121.543 23.8572 121.439 23.9783C121.359 24.0734 119.557 26.2524 121.448 28.7312C121.543 28.858 121.52 29.0396 121.393 29.1347C121.344 29.1722 121.281 29.1924 121.22 29.1924Z" fill="white"/>
<path d="M120.136 30.2132C120.049 30.2132 119.963 30.1728 119.905 30.1008C116.925 26.1952 119.885 22.65 119.917 22.6154C120.02 22.4943 120.202 22.4799 120.323 22.5837C120.444 22.6874 120.458 22.869 120.355 22.9901C120.245 23.1198 117.671 26.2212 120.363 29.7491C120.461 29.876 120.435 30.0575 120.309 30.1527C120.257 30.193 120.196 30.2132 120.136 30.2132ZM132.083 27.9563C132.017 27.9563 131.95 27.9333 131.896 27.8872C131.774 27.7834 131.76 27.6018 131.864 27.4807C131.901 27.4375 132.746 26.4028 131.855 25.2354C131.76 25.1086 131.783 24.927 131.91 24.8319C132.037 24.7339 132.218 24.7598 132.313 24.8867C133.256 26.1232 132.72 27.3683 132.302 27.8555C132.244 27.9217 132.164 27.9563 132.083 27.9563Z" fill="white"/>
<path d="M133.035 29.1942C132.969 29.1942 132.902 29.1711 132.848 29.125C132.727 29.0212 132.712 28.8397 132.816 28.7186C132.897 28.6235 134.698 26.4444 132.807 23.9657C132.712 23.8388 132.735 23.6572 132.862 23.5621C132.989 23.4641 133.17 23.4901 133.266 23.6169C135.445 26.4704 133.277 29.0674 133.254 29.0933C133.196 29.1596 133.116 29.1942 133.035 29.1942Z" fill="white"/>
<path d="M134.102 30.2121C134.036 30.2121 133.97 30.1891 133.915 30.1429C133.794 30.0392 133.779 29.8576 133.883 29.7365C133.993 29.6068 136.567 26.5055 133.874 22.9775C133.779 22.8507 133.802 22.6691 133.929 22.574C134.056 22.476 134.238 22.5019 134.333 22.6287C137.313 26.5314 134.353 30.0767 134.321 30.1112C134.266 30.1775 134.186 30.2121 134.102 30.2121Z" fill="white"/>
</g>
</g>
<defs>
<filter id="filter0_d_4550_271" x="83.5174" y="31.6525" width="32.6679" height="42.095" filterUnits="userSpaceOnUse" color-interpolation-filters="sRGB">
<feFlood flood-opacity="0" result="BackgroundImageFix"/>
<feColorMatrix in="SourceAlpha" type="matrix" values="0 0 0 0 0 0 0 0 0 0 0 0 0 0 0 0 0 0 127 0" result="hardAlpha"/>
<feOffset dy="1.01511"/>
<feGaussianBlur stdDeviation="0.507554"/>
<feComposite in2="hardAlpha" operator="out"/>
<feColorMatrix type="matrix" values="0 0 0 0 0 0 0 0 0 0 0 0 0 0 0 0 0 0 0.16 0"/>
<feBlend mode="normal" in2="BackgroundImageFix" result="effect1_dropShadow_4550_271"/>
<feBlend mode="normal" in="SourceGraphic" in2="effect1_dropShadow_4550_271" result="shape"/>
</filter>
<clipPath id="clip0_4550_271">
<rect width="206" height="100" fill="white"/>
</clipPath>
<clipPath id="clip1_4550_271">
<rect width="34.5879" height="34.5879" fill="white" transform="translate(109.847 10)"/>
</clipPath>
</defs>
</svg>
