<svg width="206" height="100" viewBox="0 0 206 100" fill="none" xmlns="http://www.w3.org/2000/svg">
<g clip-path="url(#clip0_1675_7588)">
<path d="M194 0H12C5.37258 0 0 5.37258 0 12V88C0 94.6274 5.37258 100 12 100H194C200.627 100 206 94.6274 206 88V12C206 5.37258 200.627 0 194 0Z" fill="white"/>
<g filter="url(#filter0_d_1675_7588)">
<rect x="63" y="22" width="89" height="100" rx="12" fill="#E0EBFF"/>
</g>
<rect x="66" y="25" width="82.88" height="92" rx="10" fill="white"/>
<mask id="mask0_1675_7588" style="mask-type:alpha" maskUnits="userSpaceOnUse" x="66" y="25" width="83" height="92">
<rect x="66" y="25" width="82.88" height="92" rx="10" fill="white"/>
</mask>
<g mask="url(#mask0_1675_7588)">
<g opacity="0.04">
<path d="M127.836 101.947C114.792 94.9644 105.98 82.5915 103.667 67.9956C101.558 54.7226 105.308 41.3252 113.593 31.1156C113.593 31.1156 113.598 31.1106 113.603 31.1056C113.613 31.0857 113.643 31.0509 113.688 30.9962C113.747 30.9266 113.807 30.852 113.862 30.7874C113.912 30.7277 113.961 30.668 114.021 30.5984C114.14 30.4542 114.285 30.2901 114.444 30.1011C114.921 29.5391 115.418 28.9921 115.931 28.455C115.931 28.45 115.936 28.4451 115.936 28.4451C117.93 25.869 116.149 22 112.773 22H112.743C111.619 22 110.56 22.4675 109.804 23.288C109.799 23.293 109.794 23.298 109.784 23.3079C109.694 23.4024 109.605 23.5068 109.51 23.6113C107.755 25.5259 106.144 27.5549 104.696 29.6784C104.393 30.121 104.08 30.5735 103.776 31.041C103.652 31.225 103.533 31.409 103.418 31.598C102.543 33.0004 101.728 34.4376 100.992 35.9096C95.8594 46.0397 93.905 57.6865 95.7351 69.2588C97.1027 77.8721 100.375 85.8041 105.467 92.821C110.316 99.5147 116.746 105.119 124.047 109.033C124.852 109.461 125.737 109.59 126.568 109.456C127.766 109.267 128.865 108.536 129.482 107.387C130.526 105.428 129.795 102.996 127.836 101.947Z" fill="#1C63EB"/>
<path d="M147.663 24.9792C147.295 23.6365 146.286 22.6419 145.058 22.2291C144.431 22.0103 143.735 21.9357 143.029 22.0601C132.864 23.8603 123.962 29.4898 117.96 37.8942C111.947 46.3235 109.535 56.5879 111.156 66.8124C113.195 79.6528 121.411 90.5885 133.172 96.1384C133.242 96.1782 133.316 96.223 133.391 96.2578C134.147 96.6357 134.982 96.7451 135.773 96.6208H135.823C135.833 96.6208 135.848 96.6158 135.857 96.6109C135.982 96.591 136.101 96.5611 136.221 96.5313C136.275 96.5213 136.33 96.5015 136.38 96.4816C136.474 96.4517 136.579 96.4169 136.673 96.3821C136.758 96.3473 136.832 96.3125 136.917 96.2727C136.952 96.2528 136.986 96.2379 137.031 96.213C137.802 95.8202 138.453 95.1836 138.841 94.3282C138.846 94.3233 138.846 94.3183 138.851 94.3083C139.816 92.6473 140.751 90.9416 141.601 89.2259C143.541 85.3221 145.162 81.2989 146.47 77.1862C147.37 74.3317 144.973 71.5219 142.019 71.9894C140.522 72.2281 139.289 73.2923 138.826 74.7345C137.643 78.4643 136.171 82.1095 134.415 85.6553C134.147 86.1924 133.858 86.7195 133.585 87.2466C125.847 82.5073 120.521 74.635 119.078 65.5542C116.632 50.1179 126.185 35.2983 140.796 30.8424C142.029 36.5366 143.993 47.6911 142.865 56.9061H126.255C124.037 56.9061 122.231 58.7014 122.231 60.9293C122.231 63.013 123.818 64.7237 125.847 64.9276C125.976 64.9376 126.115 64.9475 126.255 64.9475H146.246C148.176 64.9475 149.782 63.5998 150.17 61.7897C150.18 61.7598 150.19 61.73 150.19 61.7001C153.482 46.597 147.902 25.8644 147.663 24.9792Z" fill="#1C63EB"/>
<path d="M118.998 120.819C118.978 120.839 118.958 120.859 118.938 120.879C117.585 122.187 115.487 122.371 113.925 121.316C93.7544 107.675 87.19 91.722 86.9314 91.0804C86.9264 91.0705 86.9264 91.0605 86.9264 91.0605C84.0023 84.9885 81.9484 78.4539 80.8643 71.611C79.4022 62.3612 79.7901 53.0964 81.9285 44.2494C81.9385 44.1996 81.9534 44.1549 81.9634 44.1051C82.1424 43.3642 82.3264 42.6381 82.5402 41.9021C82.5601 41.8225 82.58 41.743 82.6049 41.6634C83.2862 39.2415 84.0968 36.8445 85.0466 34.4972C85.0466 34.4923 85.0466 34.4923 85.0516 34.4873C85.1013 34.3928 85.1461 34.2884 85.1909 34.1939C85.2306 34.0845 85.2704 33.985 85.3003 33.8756C85.5141 33.1595 85.4544 32.3489 85.0118 31.5731C84.5543 30.7724 83.7437 30.2005 82.8287 30.0812C81.6501 29.927 80.5908 30.4492 79.9791 31.3145C79.9194 31.4289 79.82 31.6179 79.7603 31.7372C79.6708 31.956 79.5813 32.1798 79.4918 32.3986C78.5021 34.8553 77.6468 37.3567 76.9257 39.888C76.8013 40.3008 76.687 40.7185 76.5776 41.1313C76.4781 41.5092 76.3786 41.8822 76.2841 42.2601C76.2742 42.3099 76.2593 42.3546 76.2493 42.4044C73.8225 52.2012 73.3749 62.4407 74.9762 72.5509C75.2696 74.4009 75.6327 76.2658 76.0604 78.0859C76.5676 80.2442 75.2299 82.4075 73.0765 82.9147C72.9771 82.9396 72.8776 82.9545 72.7782 82.9744C70.7243 83.2976 68.7351 81.9848 68.2477 79.9259C67.7703 77.9168 67.3625 75.858 67.0442 73.8041C64.697 59.0143 66.3231 43.9758 71.7587 30.1309L71.8084 29.9867C72.0322 29.3203 72.3157 28.6788 72.6041 28.0373C72.6538 27.9279 72.6986 27.8135 72.7483 27.7041C72.992 27.2615 73.2755 26.8388 73.5738 26.431C73.5788 26.426 73.5838 26.421 73.5937 26.4111C73.7031 26.2669 73.8125 26.1226 73.9319 25.9834C75.9509 23.5516 79.0044 22 82.4109 22C85.2555 22 87.8514 23.0791 89.8158 24.8595C92.0537 26.8835 93.466 29.8126 93.466 33.065C93.466 33.627 93.4063 34.174 93.3218 34.7161C93.3019 34.8255 93.287 34.9349 93.2671 35.0443C93.2571 35.1089 93.2472 35.1835 93.2372 35.2482C93.2173 35.3427 93.1975 35.4471 93.1776 35.5465C93.1577 35.6162 93.1427 35.6908 93.1229 35.7604C93.1129 35.8151 93.098 35.8598 93.088 35.9096C93.0682 35.9693 93.0532 36.0289 93.0333 36.0936C93.0085 36.203 92.9786 36.3074 92.9488 36.4168C92.9289 36.4666 92.914 36.5113 92.8891 36.561V36.566C92.7598 36.9639 92.6007 37.3518 92.4167 37.7247C92.352 37.8839 92.2874 38.053 92.2178 38.2121C88.2542 48.3322 87.0408 59.3624 88.7814 70.3528C90.1738 79.0954 93.3317 87.2661 98.0312 94.4621C98.0312 94.4621 98.0859 94.5466 98.1854 94.7008C98.265 94.8202 98.3694 94.9793 98.5087 95.1782C98.5982 95.3175 98.6976 95.4667 98.817 95.6308C102.283 100.688 106.525 105.244 111.449 109.128C112.364 109.913 113.328 110.704 114.343 111.51C115.651 112.534 117.048 113.573 118.525 114.608C120.614 116.065 120.823 119.054 118.998 120.819Z" fill="#1C63EB"/>
<path d="M83.9908 109.451C82.6829 109.451 81.4596 108.804 80.7086 107.73C77.0833 102.543 74.0647 96.9735 71.6826 91.0556C70.8571 89.0166 71.8417 86.6942 73.8856 85.8687C75.9246 85.0432 78.252 86.0378 79.0775 88.0767C81.2358 93.4377 83.9759 98.4903 87.2581 103.19C89.0982 105.83 87.2084 109.451 83.9908 109.451Z" fill="#1C63EB"/>
</g>
</g>
<rect x="97" y="28" width="22" height="4" rx="2" fill="#1C63EB"/>
<circle cx="66" cy="28" r="12" fill="#27272A"/>
<path d="M75.9882 27.5091C75.9722 27.179 75.9402 26.8531 75.893 26.5321L75.7446 26.554C75.6973 26.2325 75.6345 25.9162 75.557 25.6057L75.7025 25.5693C75.6228 25.2499 75.5276 24.9365 75.418 24.6301L75.2767 24.6806C75.1676 24.3757 75.0439 24.0778 74.9065 23.7877L75.042 23.7235C74.9015 23.4268 74.7467 23.1381 74.5787 22.8583L74.4501 22.9356C74.2837 22.6586 74.1042 22.3906 73.9123 22.1322L74.0327 22.0427C73.8373 21.7797 73.6293 21.5267 73.4096 21.2844L73.2985 21.3852C73.0819 21.1463 72.8537 20.9181 72.6148 20.7015L72.7156 20.5904C72.4733 20.3707 72.2203 20.1627 71.9573 19.9673L71.8678 20.0877C71.6094 19.8958 71.3414 19.7163 71.0644 19.5499L71.1417 19.4213C70.8619 19.2533 70.5732 19.0985 70.2765 18.958L70.2123 19.0935C69.9222 18.9561 69.6243 18.8324 69.3194 18.7233L69.3699 18.582C69.0635 18.4724 68.7501 18.3772 68.4307 18.2975L68.3943 18.443C68.0838 18.3655 67.7675 18.3027 67.446 18.2554L67.4679 18.107C67.1469 18.0598 66.821 18.0278 66.4909 18.0118L66.4836 18.1617C66.3234 18.1539 66.1622 18.15 66 18.15C65.8378 18.15 65.6766 18.1539 65.5164 18.1617L65.5091 18.0118C65.179 18.0278 64.8531 18.0598 64.5321 18.107L64.554 18.2554C64.2325 18.3027 63.9162 18.3655 63.6057 18.443L63.5693 18.2975C63.2499 18.3772 62.9365 18.4724 62.6301 18.582L62.6806 18.7233C62.3757 18.8324 62.0778 18.9561 61.7877 19.0935L61.7235 18.958C61.4268 19.0985 61.1381 19.2533 60.8583 19.4213L60.9356 19.5499C60.6586 19.7163 60.3906 19.8958 60.1322 20.0877L60.0427 19.9673C59.7797 20.1627 59.5267 20.3707 59.2844 20.5904L59.3852 20.7015C59.1463 20.9181 58.9181 21.1463 58.7015 21.3852L58.5904 21.2844C58.3707 21.5267 58.1627 21.7797 57.9673 22.0427L58.0877 22.1322C57.8958 22.3906 57.7163 22.6586 57.5499 22.9356L57.4213 22.8583C57.2533 23.1381 57.0985 23.4268 56.958 23.7235L57.0935 23.7877C56.9561 24.0778 56.8324 24.3757 56.7233 24.6806L56.582 24.6301C56.4724 24.9365 56.3772 25.2499 56.2975 25.5693L56.443 25.6057C56.3655 25.9162 56.3027 26.2325 56.2554 26.554L56.107 26.5321C56.0598 26.8531 56.0278 27.179 56.0118 27.5091L56.1617 27.5164C56.1539 27.6766 56.15 27.8378 56.15 28C56.15 28.1622 56.1539 28.3234 56.1617 28.4836L56.0118 28.4909C56.0278 28.821 56.0598 29.1469 56.107 29.4679L56.2554 29.446C56.3027 29.7675 56.3655 30.0838 56.443 30.3943L56.2975 30.4307C56.3772 30.7501 56.4724 31.0635 56.582 31.3699L56.7233 31.3194C56.8324 31.6243 56.9561 31.9222 57.0935 32.2123L56.958 32.2765C57.0985 32.5732 57.2533 32.8619 57.4213 33.1417L57.5499 33.0644C57.7163 33.3414 57.8958 33.6094 58.0877 33.8678L57.9673 33.9573C58.1627 34.2203 58.3707 34.4733 58.5904 34.7156L58.7015 34.6148C58.9181 34.8537 59.1463 35.0819 59.3852 35.2985L59.2844 35.4096C59.5267 35.6293 59.7797 35.8373 60.0427 36.0327L60.1322 35.9123C60.3906 36.1042 60.6586 36.2837 60.9356 36.4501L60.8583 36.5787C61.1381 36.7467 61.4268 36.9015 61.7235 37.042L61.7877 36.9065C62.0778 37.0439 62.3757 37.1676 62.6806 37.2767L62.6301 37.418C62.9365 37.5276 63.2499 37.6228 63.5693 37.7025L63.6057 37.557C63.9162 37.6345 64.2325 37.6973 64.554 37.7446L64.5321 37.893C64.8531 37.9402 65.179 37.9722 65.5091 37.9882L65.5164 37.8383C65.6766 37.8461 65.8378 37.85 66 37.85C66.1622 37.85 66.3234 37.8461 66.4836 37.8383L66.4909 37.9882C66.821 37.9722 67.1469 37.9402 67.4679 37.893L67.446 37.7446C67.7675 37.6973 68.0838 37.6345 68.3943 37.557L68.4307 37.7025C68.7501 37.6228 69.0635 37.5276 69.3699 37.418L69.3194 37.2767C69.6243 37.1676 69.9222 37.0439 70.2123 36.9065L70.2765 37.042C70.5732 36.9015 70.8619 36.7467 71.1417 36.5787L71.0644 36.4501C71.3414 36.2837 71.6094 36.1042 71.8678 35.9123L71.9573 36.0327C72.2203 35.8373 72.4733 35.6293 72.7156 35.4096L72.6148 35.2985C72.8537 35.0819 73.0819 34.8537 73.2985 34.6148L73.4096 34.7156C73.6293 34.4733 73.8373 34.2203 74.0327 33.9572L73.9123 33.8678C74.1042 33.6094 74.2837 33.3414 74.4501 33.0644L74.5787 33.1417C74.7467 32.8619 74.9015 32.5732 75.042 32.2765L74.9065 32.2123C75.0439 31.9222 75.1676 31.6243 75.2767 31.3194L75.418 31.3699C75.5276 31.0635 75.6228 30.7501 75.7025 30.4307L75.557 30.3943C75.6345 30.0838 75.6973 29.7675 75.7446 29.446L75.893 29.4679C75.9402 29.1469 75.9722 28.821 75.9882 28.4909L75.8383 28.4836C75.8461 28.3234 75.85 28.1622 75.85 28C75.85 27.8378 75.8461 27.6766 75.8383 27.5164L75.9882 27.5091Z" stroke="white" stroke-width="0.3" stroke-dasharray="1 1"/>
<path d="M61.2213 28.9478L63.6283 31.3549L63.9705 31.6971C64.3291 32.0557 64.9385 32.0557 65.2971 31.6971L67.1557 29.8385L70.0971 26.8971L70.7744 26.2197C71.1213 25.8728 71.1471 25.2353 70.7744 24.8932C70.3994 24.5486 69.8182 24.5228 69.4478 24.8932L67.5892 26.7517L64.6478 29.6932L63.9705 30.3705H65.2971L62.89 27.9635L62.5478 27.6213C62.201 27.2744 61.5635 27.2486 61.2213 27.6213C60.8767 27.9963 60.851 28.5752 61.2213 28.9478Z" fill="white"/>
<path d="M99.0027 89.6755C97.4394 88.1286 94.3455 85.0687 92.7814 83.5226C92.0593 82.8077 91.6536 81.8387 91.6536 80.8292V50.0179C91.6536 49.0083 92.0593 48.0394 92.7814 47.3245C93.5043 46.6104 94.485 46.2083 95.5078 46.2083H95.5426H95.5776H95.6128H95.648H95.6835H95.719H95.7547H95.7906H95.8266H95.8628H95.8991H95.9355H95.9721H96.0089H96.0457H96.0828H96.1199H96.1572H96.1946H96.2322H96.2699H96.3078H96.3458H96.3839H96.4222H96.4606H96.4991H96.5378H96.5766H96.6156H96.6546H96.6938H96.7332H96.7726H96.8122H96.852H96.8918H96.9318H96.9719H97.0122H97.0526H97.0931H97.1337H97.1744H97.2153H97.2563H97.2974H97.3387H97.38H97.4215H97.4631H97.5049H97.5467H97.5887H97.6308H97.673H97.7153H97.7577H97.8003H97.843H97.8858H97.9287H97.9717H98.0148H98.0581H98.1014H98.1449H98.1885H98.2322H98.276H98.3199H98.3639H98.408H98.4523H98.4966H98.5411H98.5856H98.6303H98.675H98.7199H98.7649H98.81H98.8551H98.9004H98.9458H98.9913H99.0369H99.0825H99.1283H99.1742H99.2202H99.2662H99.3124H99.3587H99.405H99.4515H99.498H99.5447H99.5914H99.6383H99.6852H99.7322H99.7793H99.8265H99.8738H99.9211H99.9686H100.016H100.064H100.111H100.159H100.207H100.255H100.303H100.351H100.4H100.448H100.496H100.545H100.593H100.642H100.691H100.739H100.788H100.837H100.886H100.935H100.985H101.034H101.083H101.133H101.182H101.232H101.281H101.331H101.381H101.43H101.48H101.53H101.58H101.631H101.681H101.731H101.781H101.832H101.882H101.933H101.983H102.034H102.084H102.135H102.186H102.237H102.288H102.339H102.39H102.441H102.492H102.543H102.595H102.646H102.698H102.749H102.801H102.852H102.904H102.955H103.007H103.059H103.111H103.163H103.215H103.267H103.319H103.371H103.423H103.475H103.527H103.579H103.632H103.684H103.737H103.789H103.841H103.894H103.947H103.999H104.052H104.105H104.157H104.21H104.263H104.316H104.369H104.421H104.474H104.527H104.58H104.634H104.687H104.74H104.793H104.846H104.899H104.953H105.006H105.059H105.113H105.166H105.219H105.273H105.326H105.38H105.433H105.487H105.54H105.594H105.647H105.701H105.755H105.808H105.862H105.916H105.969H106.023H106.077H106.131H106.185H106.238H106.292H106.346H106.4H106.454H106.508H106.562H106.615H106.669H106.723H106.777H106.831H106.885H106.939H106.993H107.047H107.101H107.155H107.209H107.263H107.317H107.371H107.425H107.479H107.533H107.587H107.641H107.695H107.749H107.803H107.857H107.911H107.965H108.019H108.074H108.128H108.182H108.236H108.29H108.344H108.398H108.452H108.505H108.559H108.613H108.667H108.721H108.775H108.829H108.883H108.937H108.991H109.045H109.098H109.152H109.206H109.26H109.314H109.367H109.421H109.475H109.529H109.582H109.636H109.69H109.743H109.797H109.85H109.904H109.957H110.011H110.064H110.118H110.171H110.225H110.278H110.331H110.385H110.438H110.491H110.545H110.598H110.651H110.704H110.757H110.81H110.863H110.916H110.969H111.022H111.075H111.128H111.181H111.233H111.286H111.339H111.391H111.444H111.497H111.549H111.602H111.654H111.707H111.759H111.811H111.863H111.916H111.968H112.02H112.072H112.124H112.176H112.228H112.28H112.332H112.384H112.435H112.487H112.539H112.59H112.642H112.693H112.745H112.796H112.847H112.898H112.95H113.001H113.052H113.103H113.154H113.205H113.255H113.306H113.357H113.407H113.458H113.509H113.559H113.609H113.66H113.71H113.76H113.81H113.86H113.91H113.96H114.01H114.06H114.109H114.159H114.209H114.258H114.307H114.357H114.406H114.455H114.504H114.553H114.602H114.651H114.7H114.749H114.797H114.846H114.894H114.943H114.991H115.039H115.087H115.135H115.183H115.231H115.279H115.327H115.374H115.422H115.469H115.517H115.564H115.611H115.658H115.705H115.752H115.799H115.846H115.893H115.939H115.986H116.032H116.078H116.124H116.17H116.216H116.262H116.308H116.354H116.399H116.445H116.49H116.535H116.581H116.626H116.671H116.716H116.76H116.805H116.85H116.894H116.938H116.983H117.027H117.071H117.115H117.158H117.202H117.246H117.289H117.333H117.376H117.419H117.462H117.505H117.548H117.59H117.633H117.675H117.718H117.76H117.802H117.844H117.886H117.927H117.969H118.011H118.052H118.093H118.134H118.175H118.216H118.257H118.298H118.338H118.378H118.419H118.459H118.499H118.539H118.578H118.618H118.657H118.697H118.736H118.775H118.814H118.853H118.891H118.93H118.968H119.007H119.045H119.083H119.121H119.158H119.196H119.233H119.271H119.308H119.345H119.382H119.419H119.455H119.492H119.528H119.564H119.6H119.636H119.672H119.707H119.743H119.778H119.813H119.848H119.883C120.906 46.2083 121.886 46.6104 122.609 47.3246C123.331 48.0395 123.737 49.0084 123.737 50.0179V50.0651V50.1126V50.1604V50.2085V50.2569V50.3056V50.3546V50.4039V50.4534V50.5032V50.5533V50.6037V50.6544V50.7053V50.7566V50.8081V50.8599V50.9119V50.9643V51.0169V51.0697V51.1229V51.1763V51.23V51.2839V51.3381V51.3926V51.4474V51.5024V51.5576V51.6132V51.6689V51.725V51.7813V51.8378V51.8946V51.9517V52.009V52.0666V52.1244V52.1824V52.2408V52.2993V52.3581V52.4171V52.4764V52.536V52.5957V52.6557V52.716V52.7764V52.8372V52.8981V52.9593V53.0207V53.0824V53.1442V53.2063V53.2687V53.3312V53.394V53.457V53.5203V53.5837V53.6474V53.7113V53.7754V53.8397V53.9043V53.969V54.034V54.0992V54.1646V54.2302V54.296V54.362V54.4283V54.4947V54.5613V54.6282V54.6952V54.7625V54.8299V54.8976V54.9654V55.0335V55.1017V55.1702V55.2388V55.3076V55.3766V55.4458V55.5152V55.5848V55.6545V55.7245V55.7946V55.8649V55.9354V56.0061V56.0769V56.148V56.2192V56.2906V56.3621V56.4339V56.5058V56.5778V56.6501V56.7225V56.7951V56.8678V56.9407V57.0138V57.0871V57.1605V57.234V57.3078V57.3817V57.4557V57.5299V57.6043V57.6788V57.7534V57.8282V57.9032V57.9783V58.0536V58.129V58.2045V58.2802V58.3561V58.4321V58.5082V58.5845V58.6609V58.7374V58.8141V58.8909V58.9678V59.0449V59.1222V59.1995V59.277V59.3546V59.4323V59.5102V59.5882V59.6663V59.7445V59.8229V59.9013V59.9799V60.0586V60.1375V60.2164V60.2955V60.3747V60.4539V60.5333V60.6129V60.6925V60.7722V60.852V60.932V61.012V61.0922V61.1724V61.2528V61.3332V61.4138V61.4944V61.5752V61.656V61.7369V61.818V61.8991V61.9803V62.0616V62.143V62.2244V62.306V62.3877V62.4694V62.5512V62.6331V62.7151V62.7971V62.8793V62.9615V63.0438V63.1261V63.2085V63.2911V63.3736V63.4563V63.539V63.6218V63.7046V63.7876V63.8705V63.9536V64.0367V64.1199V64.2031V64.2864V64.3697V64.4531V64.5366V64.6201V64.7036V64.7872V64.8709V64.9546V65.0384V65.1222V65.206V65.2899V65.3739V65.4579V65.5419V65.626V65.7101V65.7942V65.8784V65.9626V66.0469V66.1312V66.2155V66.2998V66.3842V66.4686V66.553V66.6375V66.722V66.8065V66.891V66.9756V67.0602V67.1448V67.2294V67.314V67.3986V67.4833V67.568V67.6527V67.7374V67.8221V67.9068V67.9915V68.0763V68.161V68.2458V68.3305V68.4152V68.5V68.5848V68.6695V68.7542V68.839V68.9237V69.0085V69.0932V69.1779V69.2626V69.3473V69.432V69.5167V69.6014V69.686V69.7706V69.8552V69.9398V70.0244V70.109V70.1935V70.278V70.3625V70.447V70.5314V70.6158V70.7002V70.7845V70.8688V70.9531V71.0374V71.1216V71.2058V71.2899V71.374V71.4581V71.5421V71.6261V71.7101V71.7939V71.8778V71.9616V72.0454V72.1291V72.2128V72.2964V72.3799V72.4634V72.5469V72.6303V72.7136V72.7969V72.8801V72.9633V73.0464V73.1295V73.2124V73.2954V73.3782V73.461V73.5437V73.6264V73.7089V73.7914V73.8739V73.9562V74.0385V74.1207V74.2029V74.2849V74.3669V74.4488V74.5306V74.6123V74.694V74.7755V74.857V74.9384V75.0197V75.1009V75.182V75.2631V75.344V75.4248V75.5056V75.5862V75.6668V75.7472V75.8276V75.9078V75.988V76.068V76.148V76.2278V76.3075V76.3871V76.4667V76.5461V76.6253V76.7045V76.7836V76.8625V76.9414V77.0201V77.0987V77.1771V77.2555V77.3337V77.4118V77.4898V77.5677V77.6454V77.723V77.8005V77.8778V77.9551V78.0321V78.1091V78.1859V78.2626V78.3391V78.4155V78.4918V78.5679V78.6439V78.7198V78.7955V78.871V78.9464V79.0217V79.0968V79.1718V79.2466V79.3212V79.3957V79.4701V79.5443V79.6183V79.6922V79.766V79.8395V79.9129V79.9862V80.0593V80.1322V80.2049V80.2775V80.3499V80.4222V80.4942V80.5661V80.6379V80.7094V80.7808V80.852V80.9231V80.9939V81.0646V81.1351V81.2054V81.2755V81.3455V81.4152V81.4848V81.5542V81.6234V81.6924V81.7612V81.8298V81.8983V81.9665V82.0346V82.1024V82.1701V82.2375V82.3048V82.3718V82.4387V82.5053V82.5717V82.638V82.704V82.7698V82.8354V82.9008V82.966V83.031V83.0957V83.1603V83.2246V83.2887V83.3526V83.4163V83.4797V83.543V83.606V83.6688V83.7313V83.7937V83.8558V83.9176V83.9793V84.0407V84.1019V84.1628V84.2236V84.284V84.3443V84.4043V84.464V84.5236V84.5829V84.6419V84.7007V84.7592V84.8176V84.8756V84.9334V84.991V85.0483V85.1054V85.1622V85.2187V85.275V85.3311V85.3868V85.4424V85.4976V85.5526V85.6074V85.6619V85.7161V85.77V85.8237V85.8771V85.9303V85.9831V86.0357V86.0881V86.1401V86.1919V86.2434V86.2946V86.3456V86.3963V86.4467V86.4968V86.5466V86.5961V86.6454V86.6944V86.7431V86.7915V86.8396V86.8874V86.9349V86.9821C123.737 87.9916 123.331 88.9606 122.609 89.6755C121.886 90.3896 120.906 90.7917 119.883 90.7917H119.853H119.823H119.793H119.763H119.733H119.703H119.673H119.642H119.612H119.581H119.55H119.519H119.488H119.457H119.426H119.395H119.364H119.332H119.301H119.269H119.237H119.206H119.174H119.142H119.11H119.078H119.045H119.013H118.98H118.948H118.915H118.883H118.85H118.817H118.784H118.751H118.718H118.685H118.651H118.618H118.584H118.551H118.517H118.484H118.45H118.416H118.382H118.348H118.314H118.28H118.245H118.211H118.176H118.142H118.107H118.073H118.038H118.003H117.968H117.933H117.898H117.863H117.828H117.793H117.757H117.722H117.686H117.651H117.615H117.579H117.544H117.508H117.472H117.436H117.4H117.364H117.327H117.291H117.255H117.219H117.182H117.146H117.109H117.072H117.036H116.999H116.962H116.925H116.888H116.851H116.814H116.777H116.74H116.703H116.665H116.628H116.59H116.553H116.515H116.478H116.44H116.402H116.365H116.327H116.289H116.251H116.213H116.175H116.137H116.099H116.061H116.022H115.984H115.946H115.907H115.869H115.83H115.792H115.753H115.715H115.676H115.637H115.599H115.56H115.521H115.482H115.443H115.404H115.365H115.326H115.287H115.248H115.209H115.169H115.13H115.091H115.051H115.012H114.973H114.933H114.894H114.854H114.814H114.775H114.735H114.696H114.656H114.616H114.576H114.536H114.497H114.457H114.417H114.377H114.337H114.297H114.257H114.217H114.177H114.137H114.096H114.056H114.016H113.976H113.936H113.895H113.855H113.815H113.774H113.734H113.694H113.653H113.613H113.572H113.532H113.491H113.451H113.41H113.37H113.329H113.289H113.248H113.207H113.167H113.126H113.085H113.045H113.004H112.963H112.922H112.882H112.841H112.8H112.759H112.719H112.678H112.637H112.596H112.555H112.514H112.474H112.433H112.392H112.351H112.31H112.269H112.228H112.187H112.146H112.106H112.065H112.024H111.983H111.942H111.901H111.86H111.819H111.778H111.737H111.696H111.655H111.614H111.573H111.533H111.492H111.451H111.41H111.369H111.328H111.287H111.246H111.205H111.164H111.123H111.083H111.042H111.001H110.96H110.919H110.878H110.838H110.797H110.756H110.715H110.674H110.634H110.593H110.552H110.511H110.471H110.43H110.389H110.349H110.308H110.267H110.227H110.186H110.146H110.105H110.064H110.024H109.983H109.943H109.903H109.862H109.822H109.781H109.741H109.701H109.66H109.62H109.58H109.539H109.499H109.459H109.419H109.379H109.339H109.299H109.258H109.218H109.178H109.138H109.099H109.059H109.019H108.979H108.939H108.899H108.86H108.82H108.78H108.741H108.701H108.661H108.622H108.582H108.543H108.503H108.464H108.425H108.385H108.346H108.307H108.268H108.229H108.189H108.15H108.111H108.072H108.033H107.994H107.956H107.917H107.878H107.839H107.801H107.762H107.723H107.685H107.646H107.608H107.57H107.531H107.493H107.455H107.417H107.378H107.34H107.302H107.264H107.226H107.189H107.151H107.113H107.075H107.038H107H106.962H106.925H106.888H106.85H106.813H106.776H106.738H106.701H106.664H106.627H106.59H106.553H106.517H106.48H106.443H106.406H106.37H106.333H106.297H106.261H106.224H106.188H106.152H106.116H106.08H106.044H106.008H105.972H105.936H105.9H105.865H105.829H105.794H105.758H105.723H105.688H105.652H105.617H105.582H105.547H105.512H105.478H105.443H105.408H105.374H105.339H105.305H105.27H105.236H105.202H105.168H105.134H105.1H105.066H105.032H104.998H104.965H104.931H104.898H104.864H104.831H104.798H104.765H104.731H104.699H104.666H104.633H104.6H104.568H104.535H104.503H104.47H104.438H104.406H104.374H104.342H104.31H104.278H104.246H104.215H104.183H104.152H104.121H104.089H104.058H104.027H103.996H103.965H103.935H103.904H103.874H103.843H103.813H103.783H103.752H103.722H103.692H103.663H103.633H103.603H103.574H103.544H103.515H103.486H103.457H103.428H103.399H103.37H103.341H103.313H103.284H103.256H103.228H103.199H103.171H103.143H103.116H103.088H103.06H103.033H103.005H102.978H102.951H102.924H102.897H102.87H102.844H102.817H102.791H102.764H102.738H102.712H102.686H102.66H102.635H102.609H102.583H102.558H102.533H102.508H102.483H102.458H102.433H102.408H102.384H102.359H102.335H102.311H102.287H102.263H102.239H102.216H102.192H102.169H102.146H102.123H102.1H102.077H102.054H102.031H102.009H101.987H101.964H101.942H101.92H101.899H101.877H101.855H101.834H101.813H101.792H101.771H101.75H101.729C100.706 90.7917 99.7256 90.3896 99.0027 89.6755Z" stroke="#95BAFF" stroke-width="0.416667"/>
<path fill-rule="evenodd" clip-rule="evenodd" d="M94.1683 78.7705C94.1683 79.6605 94.522 80.5142 95.1509 81.1438C96.443 82.4351 98.9988 84.991 100.29 86.283C100.92 86.9119 101.774 87.2656 102.663 87.2656C105.573 87.2656 113.474 87.2656 117.66 87.2656C118.55 87.2656 119.403 86.9119 120.033 86.283C120.662 85.6534 121.016 84.7997 121.016 83.9097C121.016 77.1979 121.016 59.7472 121.016 53.0353C121.016 52.1453 120.662 51.2916 120.033 50.662C119.403 50.0331 118.55 49.6794 117.66 49.6794C112.76 49.6794 102.424 49.6794 97.5242 49.6794C96.6343 49.6794 95.7805 50.0331 95.1509 50.662C94.522 51.2916 94.1683 52.1453 94.1683 53.0353V78.7705ZM100.88 62.4319H103.565V55.0489H102.894C101.782 55.0489 100.88 55.9503 100.88 57.0624V62.4319ZM110.277 59.076V55.0489H104.907V59.076H110.277ZM114.304 62.4319V57.0624C114.304 55.9503 113.402 55.0489 112.29 55.0489H111.619V62.4319H114.304ZM110.277 65.7878V60.4183H104.907V65.7878H110.277ZM111.619 71.1573H112.29C113.402 71.1573 114.304 70.2559 114.304 69.1437V63.7742H111.619V71.1573ZM103.565 71.1573V63.7742H100.88V69.1437C100.88 70.2559 101.782 71.1573 102.894 71.1573H103.565ZM110.277 71.1573V67.1302H104.907V71.1573H110.277Z" fill="#155AE0"/>
</g>
<defs>
<filter id="filter0_d_1675_7588" x="61" y="20" width="93" height="104" filterUnits="userSpaceOnUse" color-interpolation-filters="sRGB">
<feFlood flood-opacity="0" result="BackgroundImageFix"/>
<feColorMatrix in="SourceAlpha" type="matrix" values="0 0 0 0 0 0 0 0 0 0 0 0 0 0 0 0 0 0 127 0" result="hardAlpha"/>
<feOffset/>
<feGaussianBlur stdDeviation="1"/>
<feComposite in2="hardAlpha" operator="out"/>
<feColorMatrix type="matrix" values="0 0 0 0 0 0 0 0 0 0.178509 0 0 0 0 0.520443 0 0 0 0.75 0"/>
<feBlend mode="normal" in2="BackgroundImageFix" result="effect1_dropShadow_1675_7588"/>
<feBlend mode="normal" in="SourceGraphic" in2="effect1_dropShadow_1675_7588" result="shape"/>
</filter>
<clipPath id="clip0_1675_7588">
<rect width="206" height="100" fill="white"/>
</clipPath>
</defs>
</svg>
