<svg xmlns="http://www.w3.org/2000/svg" width="206" height="100" viewBox="0 0 206 100" fill="none"><g clip-path="url(#clip0_4209_70)"><path d="M194 0H12C5.37258 0 0 5.37258 0 12V88C0 94.6274 5.37258 100 12 100H194C200.627 100 206 94.6274 206 88V12C206 5.37258 200.627 0 194 0Z" fill="white"></path><g clip-path="url(#clip1_4209_70)"><path d="M126.438 20.4688H119.406C118.609 20.4688 118 21.0781 118 21.875C118 22.6719 118.609 23.2812 119.406 23.2812H126.438C128.266 23.2812 129.719 24.7344 129.719 26.5625V33.5938C129.719 34.3906 130.328 35 131.125 35C131.922 35 132.531 34.3906 132.531 33.5938V26.5625C132.531 23.1875 129.812 20.4688 126.438 20.4688ZM86.5938 20.4688H79.5625C76.1875 20.4688 73.4688 23.1875 73.4688 26.5625V33.5938C73.4688 34.3906 74.0781 35 74.875 35C75.6719 35 76.2812 34.3906 76.2812 33.5938V26.5625C76.2812 24.7344 77.7344 23.2812 79.5625 23.2812H86.5938C87.3906 23.2812 88 22.6719 88 21.875C88 21.0781 87.3906 20.4688 86.5938 20.4688ZM74.875 65C74.0781 65 73.4688 65.6094 73.4688 66.4062V73.4375C73.4688 76.8125 76.1875 79.5312 79.5625 79.5312H86.5938C87.3906 79.5312 88 78.9219 88 78.125C88 77.3281 87.3906 76.7188 86.5938 76.7188H79.5625C77.7344 76.7188 76.2812 75.2656 76.2812 73.4375V66.4062C76.2812 65.6094 75.6719 65 74.875 65ZM131.125 65C130.328 65 129.719 65.6094 129.719 66.4062V73.4375C129.719 75.2656 128.266 76.7188 126.438 76.7188H119.406C118.609 76.7188 118 77.3281 118 78.125C118 78.9219 118.609 79.5312 119.406 79.5312H126.438C129.812 79.5312 132.531 76.8125 132.531 73.4375V66.4062C132.531 65.6094 131.922 65 131.125 65ZM99.25 56.0938C99.4844 56.0938 99.6719 56.0469 99.8594 55.9531L103.609 54.0781C104.078 53.8437 104.406 53.375 104.406 52.8125V41.0938C104.406 40.2969 103.797 39.6875 103 39.6875C102.203 39.6875 101.594 40.2969 101.594 41.0938V51.9219L98.6406 53.4219C97.9375 53.75 97.6563 54.5938 98.0313 55.2969C98.2188 55.8125 98.7344 56.0938 99.25 56.0938ZM91.2812 39.6875C90.4844 39.6875 89.875 40.2969 89.875 41.0938V45.7812C89.875 46.5781 90.4844 47.1875 91.2812 47.1875C92.0781 47.1875 92.6875 46.5781 92.6875 45.7812V41.0938C92.6875 40.2969 92.0781 39.6875 91.2812 39.6875ZM114.719 39.6875C113.922 39.6875 113.312 40.2969 113.312 41.0938V45.7812C113.312 46.5781 113.922 47.1875 114.719 47.1875C115.516 47.1875 116.125 46.5781 116.125 45.7812V41.0938C116.125 40.2969 115.516 39.6875 114.719 39.6875ZM91.6562 60.7812C91.1406 61.3438 91.1875 62.2344 91.75 62.75C94.9375 65.6562 98.9687 67.1094 103 67.1094C107.031 67.1094 111.062 65.6562 114.25 62.75C114.813 62.2344 114.859 61.3438 114.344 60.7812C113.828 60.2187 112.938 60.1719 112.375 60.6875C107.031 65.5625 98.9687 65.5625 93.625 60.6875C93.0625 60.1719 92.1719 60.2187 91.6562 60.7812Z" fill="#0D51D4"></path></g></g><defs><clipPath id="clip0_4209_70"><rect width="206" height="100" fill="white"></rect></clipPath><clipPath id="clip1_4209_70"><rect width="60" height="60" fill="white" transform="translate(73 20)"></rect></clipPath></defs></svg>