<svg xmlns="http://www.w3.org/2000/svg" width="206" height="100" viewBox="0 0 206 100" fill="none"><g clip-path="url(#clip0_4152_991)"><path d="M194 0H12C5.37258 0 0 5.37258 0 12V88C0 94.6274 5.37258 100 12 100H194C200.627 100 206 94.6274 206 88V12C206 5.37258 200.627 0 194 0Z" fill="white"></path><g clip-path="url(#clip1_4152_991)"><path d="M146.835 41.785C136.56 41.785 129.825 48.34 129.825 58.635C129.825 68.935 136.95 75 146.255 75C154.765 75 163.005 69.7 163.005 58.05C162.99 48.5 156.52 41.785 146.835 41.785ZM146.51 67.905C142.255 67.9 139.985 63.84 139.985 58.37C139.985 53.71 141.83 48.885 146.51 48.885C150.965 48.885 152.82 53.655 152.82 58.315C152.82 64.11 150.355 67.905 146.51 67.905ZM49.13 74.265H58.95V49.845H65.08V42.63H58.95V38.81C58.8633 37.4904 59.2856 36.1878 60.13 35.17L60.125 35.185C60.2237 35.0755 60.3289 34.9719 60.44 34.875L60.445 34.87L60.45 34.865C60.45 34.865 62.565 32.775 67.55 34.15H67.56L69.99 26C69.3799 25.7874 68.7548 25.6202 68.12 25.5L68.03 25.485L67.93 25.47C66.5641 25.1555 65.1667 24.9978 63.765 25H63.655C61.77 25 59.95 25.285 58.23 25.795C57.5912 25.9845 56.9718 26.234 56.38 26.54C55.1374 27.1644 53.9989 27.9773 53.005 28.95C50.45 31.445 49.15 34.835 49.15 39.01V42.62H43V49.845H49.13V74.265Z" fill="#221E1F"></path><path d="M58.1452 25.81L58.0102 25.845L58.2252 25.795L58.2852 25.775L58.1452 25.81ZM56.3402 26.555L56.2852 26.58L56.3802 26.54L56.4002 26.53L56.3402 26.555Z" fill="black"></path><path d="M83.1398 38.19C86.1998 38.19 88.6798 35.72 88.6848 32.665C88.6848 29.615 86.1998 27.135 83.1398 27.135C80.0748 27.135 77.5898 29.61 77.5898 32.665C77.5948 35.715 80.0798 38.19 83.1398 38.19ZM68.2798 49.85H78.2398V74.27H81.8348V60.39H84.4398V74.27H88.0698V42.625H68.2798V49.85ZM106.72 41.78C99.1048 41.78 92.4198 48.015 92.4748 58.69C92.4748 68.555 98.5148 75 106.07 75C110.145 75 114.045 73.16 115.965 69.7L116.565 74.25H125.1V27.84H115.21L115.215 45.36H115.105C113.635 43.235 110.695 41.78 106.72 41.78ZM115.215 60.15C115.215 60.93 115.155 61.695 115.045 62.445C114.48 65.15 112.11 67.145 109.27 67.145H109.205C105.13 67.145 102.465 63.79 102.465 58.365C102.465 53.38 104.745 49.36 109.26 49.36C112.36 49.36 114.485 51.585 115.08 54.185C115.15 54.645 115.195 55.175 115.195 55.715L115.19 55.985L115.215 60.15Z" fill="#F5B83D"></path></g></g><defs><clipPath id="clip0_4152_991"><rect width="206" height="100" fill="white"></rect></clipPath><clipPath id="clip1_4152_991"><rect width="120" height="120" fill="white" transform="translate(43 -10)"></rect></clipPath></defs></svg>