<svg width="206" height="100" viewBox="0 0 206 100" fill="none" xmlns="http://www.w3.org/2000/svg">
<g clip-path="url(#clip0_4114_642)">
<path d="M194 0H12C5.37258 0 0 5.37258 0 12V88C0 94.6274 5.37258 100 12 100H194C200.627 100 206 94.6274 206 88V12C206 5.37258 200.627 0 194 0Z" fill="white"/>
<path d="M159.92 10H45.9947C41.5794 10 38 13.5794 38 17.9947V82.0053C38 86.4206 41.5794 90 45.9947 90H159.92C164.335 90 167.915 86.4206 167.915 82.0053V17.9947C167.915 13.5794 164.335 10 159.92 10Z" fill="white"/>
<path d="M159.919 10.4999H45.9941C41.8547 10.4999 38.499 13.8555 38.499 17.9949V82.0054C38.499 86.1449 41.8547 89.5005 45.9941 89.5005H159.919C164.059 89.5005 167.414 86.1449 167.414 82.0054V17.9949C167.414 13.8555 164.059 10.4999 159.919 10.4999Z" stroke="#1C62EA"/>
<path d="M95.4863 31.8761H76.9196C75.8157 31.8761 74.9209 32.7709 74.9209 33.8748V34.6637C74.9209 35.7676 75.8157 36.6624 76.9196 36.6624H95.4863C96.5901 36.6624 97.485 35.7676 97.485 34.6637V33.8748C97.485 32.7709 96.5901 31.8761 95.4863 31.8761Z" fill="#185EE4"/>
<path d="M110.529 37.8827H76.9196C75.8157 37.8827 74.9209 38.7775 74.9209 39.8814V40.6703C74.9209 41.7742 75.8157 42.669 76.9196 42.669H110.529C111.633 42.669 112.528 41.7742 112.528 40.6703V39.8814C112.528 38.7775 111.633 37.8827 110.529 37.8827Z" fill="#185EE4"/>
<path d="M129.28 44.035H76.6303C75.6862 44.035 74.9209 44.8004 74.9209 45.7444C74.9209 46.6885 75.6862 47.4538 76.6303 47.4538H129.28C130.224 47.4538 130.989 46.6885 130.989 45.7444C130.989 44.8004 130.224 44.035 129.28 44.035Z" fill="#185EE4"/>
<path d="M91.3838 49.5079H76.9196C75.8157 49.5079 74.9209 50.4028 74.9209 51.5066V51.6118C74.9209 52.7156 75.8157 53.6105 76.9196 53.6105H91.3838C92.4876 53.6105 93.3825 52.7156 93.3825 51.6118V51.5066C93.3825 50.4028 92.4876 49.5079 91.3838 49.5079Z" fill="#185EE4"/>
<path d="M75.6051 81.7967H58.5111C57.7558 81.7967 57.1436 82.409 57.1436 83.1643C57.1436 83.9195 57.7558 84.5318 58.5111 84.5318H75.6051C76.3604 84.5318 76.9726 83.9195 76.9726 83.1643C76.9726 82.409 76.3604 81.7967 75.6051 81.7967Z" fill="#185EE4"/>
<path d="M147.406 81.7967H82.4486C81.6933 81.7967 81.0811 82.409 81.0811 83.1643C81.0811 83.9195 81.6933 84.5318 82.4486 84.5318H147.406C148.161 84.5318 148.773 83.9195 148.773 83.1643C148.773 82.409 148.161 81.7967 147.406 81.7967Z" fill="#185EE4"/>
<path d="M167.915 75.6444H38V76.3282H167.915V75.6444Z" fill="#155AE0"/>
<path d="M69.5008 31.8761H45.464C44.3602 31.8761 43.4653 32.7709 43.4653 33.8748V62.0142C43.4653 63.118 44.3602 64.0129 45.464 64.0129H69.5008C70.6047 64.0129 71.4995 63.118 71.4995 62.0142V33.8748C71.4995 32.7709 70.6047 31.8761 69.5008 31.8761Z" fill="#0D51D4"/>
<path d="M159.766 31.8761H138.465C137.361 31.8761 136.466 32.7709 136.466 33.8748V55.1766C136.466 56.2804 137.361 57.1753 138.465 57.1753H159.766C160.87 57.1753 161.765 56.2804 161.765 55.1766V33.8748C161.765 32.7709 160.87 31.8761 159.766 31.8761Z" fill="#0D51D4"/>
<path d="M147.806 35.5303C148.554 34.7091 149.846 34.7091 150.595 35.5303V35.5303C151.091 36.075 151.859 36.2808 152.561 36.0572V36.0572C153.62 35.7201 154.739 36.3662 154.976 37.4514V37.4514C155.133 38.1713 155.696 38.7336 156.416 38.891V38.891C157.501 39.1284 158.147 40.2474 157.81 41.3059V41.3059C157.586 42.0081 157.792 42.7761 158.337 43.2724V43.2724C159.158 44.0206 159.158 45.3128 158.337 46.0609V46.0609C157.792 46.5572 157.586 47.3253 157.81 48.0274V48.0274C158.147 49.0859 157.501 50.205 156.416 50.4423V50.4423C155.696 50.5997 155.133 51.162 154.976 51.8819V51.8819C154.739 52.9671 153.62 53.6132 152.561 53.2761V53.2761C151.859 53.0525 151.091 53.2583 150.595 53.8031V53.8031C149.846 54.6242 148.554 54.6242 147.806 53.8031V53.8031C147.31 53.2583 146.542 53.0525 145.84 53.2761V53.2761C144.781 53.6132 143.662 52.9671 143.425 51.8819V51.8819C143.267 51.162 142.705 50.5997 141.985 50.4423V50.4423C140.9 50.205 140.254 49.0859 140.591 48.0274V48.0274C140.814 47.3253 140.609 46.5572 140.064 46.0609V46.0609C139.243 45.3128 139.243 44.0206 140.064 43.2724V43.2724C140.609 42.7761 140.814 42.0081 140.591 41.3059V41.3059C140.254 40.2474 140.9 39.1284 141.985 38.891V38.891C142.705 38.7336 143.267 38.1713 143.425 37.4514V37.4514C143.662 36.3662 144.781 35.7201 145.84 36.0572V36.0572C146.542 36.2808 147.31 36.075 147.806 35.5303V35.5303Z" fill="white"/>
<ellipse cx="149.2" cy="44.6667" rx="7.11111" ry="7.11111" stroke="#0D51D4" stroke-dasharray="2 2"/>
<g clip-path="url(#clip1_4114_642)">
<path d="M149.41 49.5834C149.762 49.3594 150.115 49.1365 150.467 48.9125C150.627 48.8115 150.788 48.7115 150.943 48.6032C151.312 48.3459 151.658 48.0532 151.965 47.724C152.573 47.0709 153.036 46.2969 153.329 45.4542C153.567 44.7657 153.669 44.0396 153.669 43.3125V41.9261C153.669 41.7396 153.539 41.5771 153.363 41.524C153.236 41.4855 153.11 41.4459 152.988 41.3948C153.021 41.4084 153.055 41.423 153.088 41.4365C152.87 41.3438 152.666 41.225 152.479 41.0813L152.563 41.1469C152.378 41.0032 152.211 40.8375 152.067 40.6521L152.133 40.7365C151.989 40.549 151.869 40.3438 151.777 40.1261C151.79 40.1594 151.805 40.1928 151.818 40.2261C151.787 40.1511 151.758 40.074 151.733 39.9969C151.677 39.8209 151.519 39.6907 151.331 39.6907H147.592C147.42 39.6907 147.247 39.6855 147.076 39.6907H147.068C146.879 39.6907 146.722 39.8209 146.666 39.9969C146.641 40.075 146.613 40.1511 146.581 40.2261C146.594 40.1928 146.609 40.1594 146.622 40.1261C146.53 40.3438 146.41 40.548 146.266 40.7365L146.332 40.6521C146.188 40.8375 146.021 41.0032 145.836 41.1469L145.92 41.0813C145.733 41.225 145.528 41.3438 145.311 41.4365C145.344 41.423 145.378 41.4084 145.411 41.3948C145.288 41.4459 145.163 41.4855 145.036 41.524C144.86 41.5771 144.73 41.7396 144.73 41.9261V43.1823C144.73 43.4032 144.73 43.624 144.745 43.8448C144.779 44.2938 144.855 44.7417 144.981 45.174C145.231 46.0323 145.664 46.823 146.239 47.5053C146.686 48.0355 147.225 48.4646 147.808 48.8344L148.961 49.5657C148.97 49.5719 148.981 49.5782 148.99 49.5844C149.175 49.7011 149.458 49.6292 149.56 49.4344C149.668 49.2282 149.607 48.9896 149.41 48.8646C149.222 48.7459 149.035 48.6271 148.848 48.5084C148.609 48.3563 148.37 48.2053 148.131 48.0532C147.963 47.9469 147.8 47.8334 147.641 47.7125L147.726 47.7782C147.332 47.473 146.978 47.1188 146.672 46.725L146.738 46.8094C146.428 46.4063 146.169 45.9646 145.97 45.4959C145.984 45.5292 145.998 45.5625 146.012 45.5959C145.809 45.1136 145.67 44.6073 145.601 44.0886C145.606 44.125 145.611 44.1625 145.615 44.199C145.57 43.8615 145.563 43.524 145.563 43.1855V41.9303C145.461 42.0646 145.359 42.198 145.257 42.3323C145.616 42.224 145.964 42.0803 146.269 41.8605C146.631 41.6 146.939 41.2792 147.168 40.8959C147.294 40.6855 147.395 40.4563 147.47 40.223C147.336 40.325 147.203 40.4271 147.068 40.5292H150.807C150.979 40.5292 151.152 40.5334 151.323 40.5292H151.331C151.196 40.4271 151.063 40.325 150.929 40.223C151.19 41.0386 151.784 41.748 152.563 42.1146C152.751 42.2032 152.943 42.2719 153.142 42.3323C153.04 42.198 152.938 42.0646 152.836 41.9303V43.4073C152.836 43.6719 152.818 43.9365 152.784 44.199C152.789 44.1625 152.794 44.125 152.798 44.0886C152.728 44.6063 152.589 45.1136 152.387 45.5959C152.401 45.5625 152.415 45.5292 152.429 45.4959C152.23 45.9646 151.971 46.4063 151.661 46.8094L151.727 46.725C151.421 47.1188 151.067 47.473 150.673 47.7782L150.758 47.7125C150.525 47.8928 150.277 48.048 150.029 48.2063C149.754 48.3813 149.479 48.5553 149.204 48.7303C149.133 48.775 149.061 48.8209 148.99 48.8657C148.9 48.923 148.828 49.0094 148.798 49.1146C148.771 49.2146 148.784 49.3469 148.84 49.4355C148.959 49.6188 149.213 49.7084 149.41 49.5834Z" fill="#1A60E7"/>
<path d="M147.077 44.6448L148.146 45.7146L148.299 45.8667C148.458 46.0261 148.729 46.0261 148.888 45.8667L149.714 45.0407L151.021 43.7334L151.323 43.4323C151.477 43.2782 151.488 42.9948 151.323 42.8428C151.156 42.6896 150.898 42.6782 150.733 42.8428L149.907 43.6688L148.6 44.9761L148.299 45.2771H148.888L147.818 44.2073L147.666 44.0553C147.512 43.9011 147.229 43.8896 147.077 44.0553C146.924 44.2219 146.912 44.4792 147.077 44.6448Z" fill="#1A60E7"/>
</g>
<path d="M38.999 17.9991C38.999 14.1331 42.133 10.9991 45.999 10.9991H159.915C163.781 10.9991 166.915 14.1332 166.915 17.9991V24.9899H38.999V17.9991Z" fill="#0D51D4"/>
<path d="M87.0348 13.7273V21H85.7173V13.7273H87.0348ZM90.926 21H88.4615V13.7273H90.9757C91.6977 13.7273 92.318 13.8729 92.8365 14.1641C93.3573 14.4529 93.7574 14.8684 94.0368 15.4105C94.3161 15.9527 94.4558 16.6013 94.4558 17.3565C94.4558 18.1141 94.3149 18.7652 94.0332 19.3097C93.7538 19.8542 93.3502 20.272 92.8223 20.5632C92.2967 20.8544 91.6646 21 90.926 21ZM89.7789 19.8601H90.862C91.3687 19.8601 91.7913 19.7678 92.1298 19.5831C92.4683 19.3961 92.7228 19.1179 92.8933 18.7486C93.0637 18.3769 93.149 17.9129 93.149 17.3565C93.149 16.8002 93.0637 16.3385 92.8933 15.9716C92.7228 15.6023 92.4707 15.3265 92.1369 15.1442C91.8055 14.9595 91.3935 14.8672 90.9011 14.8672H89.7789V19.8601ZM104.413 16.1811H103.085C103.047 15.9633 102.977 15.7704 102.876 15.6023C102.774 15.4318 102.647 15.2874 102.496 15.169C102.344 15.0507 102.171 14.9619 101.977 14.9027C101.785 14.8411 101.578 14.8104 101.356 14.8104C100.96 14.8104 100.61 14.9098 100.305 15.1087C99.9991 15.3052 99.76 15.594 99.5872 15.9751C99.4144 16.3539 99.3279 16.8168 99.3279 17.3636C99.3279 17.92 99.4144 18.3887 99.5872 18.7699C99.7624 19.1487 100.001 19.4351 100.305 19.6293C100.61 19.821 100.959 19.9169 101.352 19.9169C101.57 19.9169 101.773 19.8885 101.963 19.8317C102.155 19.7725 102.326 19.6861 102.478 19.5724C102.632 19.4588 102.761 19.3191 102.865 19.1534C102.971 18.9877 103.045 18.7983 103.085 18.5852L104.413 18.5923C104.363 18.938 104.256 19.2623 104.09 19.5653C103.927 19.8684 103.712 20.1359 103.447 20.3679C103.182 20.5975 102.872 20.7775 102.517 20.9077C102.162 21.0355 101.768 21.0994 101.334 21.0994C100.695 21.0994 100.125 20.9515 99.6227 20.6555C99.1208 20.3596 98.7254 19.9323 98.4366 19.3736C98.1478 18.8149 98.0034 18.1449 98.0034 17.3636C98.0034 16.58 98.149 15.91 98.4402 15.3537C98.7314 14.795 99.1279 14.3677 99.6298 14.0717C100.132 13.7758 100.7 13.6278 101.334 13.6278C101.739 13.6278 102.116 13.6847 102.464 13.7983C102.812 13.9119 103.122 14.0788 103.394 14.299C103.666 14.5168 103.89 14.7843 104.065 15.1016C104.243 15.4164 104.359 15.7763 104.413 16.1811ZM107.132 21.1101C106.787 21.1101 106.475 21.0485 106.199 20.9254C105.924 20.8 105.706 20.6153 105.545 20.3714C105.386 20.1276 105.307 19.8269 105.307 19.4695C105.307 19.1617 105.364 18.9072 105.478 18.706C105.591 18.5047 105.746 18.3438 105.943 18.223C106.139 18.1023 106.361 18.0111 106.607 17.9496C106.855 17.8857 107.112 17.8395 107.377 17.8111C107.697 17.7779 107.956 17.7483 108.155 17.7223C108.354 17.6939 108.498 17.6513 108.588 17.5945C108.681 17.5353 108.727 17.4441 108.727 17.321V17.2997C108.727 17.0322 108.648 16.825 108.489 16.6783C108.33 16.5315 108.102 16.4581 107.804 16.4581C107.489 16.4581 107.239 16.5268 107.054 16.6641C106.872 16.8014 106.749 16.9635 106.685 17.1506L105.485 16.9801C105.579 16.6487 105.736 16.3717 105.953 16.1491C106.171 15.9242 106.438 15.7562 106.752 15.6449C107.067 15.5312 107.415 15.4744 107.797 15.4744C108.059 15.4744 108.321 15.5052 108.581 15.5668C108.842 15.6283 109.08 15.7301 109.295 15.8722C109.511 16.0118 109.683 16.2024 109.814 16.4439C109.946 16.6854 110.012 16.9872 110.012 17.3494V21H108.777V20.2507H108.734C108.656 20.4022 108.546 20.5443 108.404 20.6768C108.264 20.8071 108.088 20.9124 107.875 20.9929C107.664 21.071 107.417 21.1101 107.132 21.1101ZM107.466 20.1655C107.724 20.1655 107.948 20.1146 108.137 20.0128C108.327 19.9086 108.472 19.7713 108.574 19.6009C108.678 19.4304 108.73 19.2446 108.73 19.0433V18.4006C108.69 18.4337 108.622 18.4645 108.525 18.4929C108.43 18.5213 108.323 18.5462 108.205 18.5675C108.087 18.5888 107.969 18.6077 107.853 18.6243C107.737 18.6409 107.637 18.6551 107.551 18.6669C107.36 18.6929 107.188 18.7356 107.037 18.7947C106.885 18.8539 106.766 18.9368 106.678 19.0433C106.59 19.1475 106.547 19.2824 106.547 19.4482C106.547 19.6849 106.633 19.8636 106.806 19.9844C106.979 20.1051 107.199 20.1655 107.466 20.1655ZM111.305 21V15.5455H112.551V16.4545H112.608C112.708 16.1397 112.878 15.897 113.12 15.7266C113.364 15.5537 113.642 15.4673 113.954 15.4673C114.025 15.4673 114.105 15.4709 114.192 15.478C114.282 15.4827 114.357 15.491 114.416 15.5028V16.6854C114.361 16.6664 114.275 16.6499 114.157 16.6357C114.041 16.6191 113.928 16.6108 113.819 16.6108C113.585 16.6108 113.374 16.6617 113.187 16.7635C113.002 16.8629 112.857 17.0014 112.75 17.179C112.644 17.3565 112.591 17.5613 112.591 17.7933V21H111.305ZM117.069 21.0959C116.641 21.0959 116.257 20.9858 115.919 20.7656C115.58 20.5455 115.313 20.2259 115.116 19.8068C114.92 19.3878 114.822 18.8788 114.822 18.2798C114.822 17.6738 114.921 17.1624 115.12 16.7457C115.321 16.3267 115.592 16.0107 115.933 15.7976C116.274 15.5821 116.654 15.4744 117.073 15.4744C117.393 15.4744 117.655 15.5289 117.861 15.6378C118.067 15.7443 118.231 15.8733 118.351 16.0249C118.472 16.174 118.566 16.3149 118.632 16.4474H118.685V13.7273H119.974V21H118.71V20.1406H118.632C118.566 20.2732 118.47 20.4141 118.344 20.5632C118.219 20.71 118.053 20.8355 117.847 20.9396C117.641 21.0438 117.382 21.0959 117.069 21.0959ZM117.428 20.0412C117.7 20.0412 117.932 19.9678 118.124 19.821C118.316 19.6719 118.461 19.4647 118.561 19.1996C118.66 18.9344 118.71 18.6255 118.71 18.2727C118.71 17.92 118.66 17.6134 118.561 17.353C118.464 17.0926 118.319 16.8902 118.128 16.7457C117.938 16.6013 117.705 16.5291 117.428 16.5291C117.142 16.5291 116.903 16.6037 116.711 16.7528C116.519 16.902 116.375 17.108 116.278 17.3707C116.18 17.6335 116.132 17.9342 116.132 18.2727C116.132 18.6136 116.18 18.9179 116.278 19.1854C116.377 19.4505 116.523 19.66 116.714 19.8139C116.908 19.9654 117.146 20.0412 117.428 20.0412Z" fill="white"/>
</g>
<defs>
<clipPath id="clip0_4114_642">
<rect width="206" height="100" fill="white"/>
</clipPath>
<clipPath id="clip1_4114_642">
<rect width="10.6667" height="10.6667" fill="white" transform="translate(143.866 39.3334)"/>
</clipPath>
</defs>
</svg>
