<svg width="206" height="100" viewBox="0 0 206 100" fill="none" xmlns="http://www.w3.org/2000/svg">
<g clip-path="url(#clip0_2570_3029)">
<path d="M194 0H12C5.37258 0 0 5.37258 0 12V88C0 94.6274 5.37258 100 12 100H194C200.627 100 206 94.6274 206 88V12C206 5.37258 200.627 0 194 0Z" fill="white"/>
<g filter="url(#filter0_d_2570_3029)">
<rect x="63" y="22" width="89" height="100" rx="12" fill="#E0EBFF"/>
</g>
<rect x="66" y="25" width="82.88" height="92" rx="10" fill="white"/>
<mask id="mask0_2570_3029" style="mask-type:alpha" maskUnits="userSpaceOnUse" x="66" y="25" width="83" height="92">
<rect x="66" y="25" width="82.88" height="92" rx="10" fill="white"/>
</mask>
<g mask="url(#mask0_2570_3029)">
<g opacity="0.04">
<path d="M127.836 101.947C114.792 94.9644 105.98 82.5915 103.667 67.9956C101.558 54.7226 105.308 41.3252 113.593 31.1156C113.593 31.1156 113.598 31.1106 113.603 31.1056C113.613 31.0857 113.643 31.0509 113.688 30.9962C113.747 30.9266 113.807 30.852 113.862 30.7874C113.912 30.7277 113.961 30.668 114.021 30.5984C114.14 30.4542 114.285 30.2901 114.444 30.1011C114.921 29.5391 115.418 28.9921 115.931 28.455C115.931 28.45 115.936 28.4451 115.936 28.4451C117.93 25.869 116.149 22 112.773 22H112.743C111.619 22 110.56 22.4675 109.804 23.288C109.799 23.293 109.794 23.298 109.784 23.3079C109.694 23.4024 109.605 23.5068 109.51 23.6113C107.755 25.5259 106.144 27.5549 104.696 29.6784C104.393 30.121 104.08 30.5735 103.776 31.041C103.652 31.225 103.533 31.409 103.418 31.598C102.543 33.0004 101.728 34.4376 100.992 35.9096C95.8594 46.0397 93.905 57.6865 95.7351 69.2588C97.1027 77.8721 100.375 85.8041 105.467 92.821C110.316 99.5147 116.746 105.119 124.047 109.033C124.852 109.461 125.737 109.59 126.568 109.456C127.766 109.267 128.865 108.536 129.482 107.387C130.526 105.428 129.795 102.996 127.836 101.947Z" fill="#1C63EB"/>
<path d="M147.667 24.9792C147.299 23.6365 146.29 22.6419 145.062 22.2291C144.435 22.0103 143.739 21.9357 143.033 22.0601C132.868 23.8603 123.966 29.4898 117.963 37.8942C111.951 46.3235 109.539 56.5879 111.16 66.8124C113.199 79.6528 121.415 90.5885 133.176 96.1384C133.246 96.1782 133.32 96.223 133.395 96.2578C134.151 96.6357 134.986 96.7451 135.777 96.6208H135.827C135.837 96.6208 135.851 96.6158 135.861 96.6109C135.986 96.591 136.105 96.5611 136.224 96.5313C136.279 96.5213 136.334 96.5015 136.384 96.4816C136.478 96.4517 136.582 96.4169 136.677 96.3821C136.762 96.3473 136.836 96.3125 136.921 96.2727C136.955 96.2528 136.99 96.2379 137.035 96.213C137.806 95.8202 138.457 95.1836 138.845 94.3282C138.85 94.3233 138.85 94.3183 138.855 94.3083C139.82 92.6473 140.755 90.9416 141.605 89.2259C143.545 85.3221 145.166 81.2989 146.474 77.1862C147.374 74.3317 144.977 71.5219 142.023 71.9894C140.526 72.2281 139.293 73.2923 138.83 74.7345C137.647 78.4643 136.175 82.1095 134.419 85.6553C134.151 86.1924 133.862 86.7195 133.589 87.2466C125.851 82.5073 120.525 74.635 119.082 65.5542C116.636 50.1179 126.189 35.2983 140.8 30.8424C142.033 36.5366 143.997 47.6911 142.868 56.9061H126.258C124.04 56.9061 122.235 58.7014 122.235 60.9293C122.235 63.013 123.822 64.7237 125.851 64.9276C125.98 64.9376 126.119 64.9475 126.258 64.9475H146.25C148.18 64.9475 149.786 63.5998 150.174 61.7897C150.184 61.7598 150.194 61.73 150.194 61.7001C153.486 46.597 147.906 25.8644 147.667 24.9792Z" fill="#1C63EB"/>
<path d="M118.998 120.819C118.978 120.839 118.958 120.859 118.938 120.879C117.585 122.187 115.487 122.371 113.925 121.316C93.7544 107.675 87.19 91.722 86.9314 91.0804C86.9264 91.0705 86.9264 91.0605 86.9264 91.0605C84.0023 84.9885 81.9484 78.4539 80.8643 71.611C79.4022 62.3612 79.7901 53.0964 81.9285 44.2494C81.9385 44.1996 81.9534 44.1549 81.9634 44.1051C82.1424 43.3642 82.3264 42.6381 82.5402 41.9021C82.5601 41.8225 82.58 41.743 82.6049 41.6634C83.2862 39.2415 84.0968 36.8445 85.0466 34.4972C85.0466 34.4923 85.0466 34.4923 85.0516 34.4873C85.1013 34.3928 85.1461 34.2884 85.1909 34.1939C85.2306 34.0845 85.2704 33.985 85.3003 33.8756C85.5141 33.1595 85.4544 32.3489 85.0118 31.5731C84.5543 30.7724 83.7437 30.2005 82.8287 30.0812C81.6501 29.927 80.5908 30.4492 79.9791 31.3145C79.9194 31.4289 79.82 31.6179 79.7603 31.7372C79.6708 31.956 79.5813 32.1798 79.4918 32.3986C78.5021 34.8553 77.6468 37.3567 76.9257 39.888C76.8013 40.3008 76.687 40.7185 76.5776 41.1313C76.4781 41.5092 76.3786 41.8822 76.2841 42.2601C76.2742 42.3099 76.2593 42.3546 76.2493 42.4044C73.8225 52.2012 73.3749 62.4407 74.9762 72.5509C75.2696 74.4009 75.6327 76.2658 76.0604 78.0859C76.5676 80.2442 75.2299 82.4075 73.0765 82.9147C72.9771 82.9396 72.8776 82.9545 72.7782 82.9744C70.7243 83.2976 68.7351 81.9848 68.2477 79.9259C67.7703 77.9168 67.3625 75.858 67.0442 73.8041C64.697 59.0143 66.3231 43.9758 71.7587 30.1309L71.8084 29.9867C72.0322 29.3203 72.3157 28.6788 72.6041 28.0373C72.6538 27.9279 72.6986 27.8135 72.7483 27.7041C72.992 27.2615 73.2755 26.8388 73.5738 26.431C73.5788 26.426 73.5838 26.421 73.5937 26.4111C73.7031 26.2669 73.8125 26.1226 73.9319 25.9834C75.9509 23.5516 79.0044 22 82.4109 22C85.2555 22 87.8514 23.0791 89.8158 24.8595C92.0537 26.8835 93.466 29.8126 93.466 33.065C93.466 33.627 93.4063 34.174 93.3218 34.7161C93.3019 34.8255 93.287 34.9349 93.2671 35.0443C93.2571 35.1089 93.2472 35.1835 93.2372 35.2482C93.2173 35.3427 93.1975 35.4471 93.1776 35.5465C93.1577 35.6162 93.1427 35.6908 93.1229 35.7604C93.1129 35.8151 93.098 35.8598 93.088 35.9096C93.0682 35.9693 93.0532 36.0289 93.0333 36.0936C93.0085 36.203 92.9786 36.3074 92.9488 36.4168C92.9289 36.4666 92.914 36.5113 92.8891 36.561V36.566C92.7598 36.9639 92.6007 37.3518 92.4167 37.7247C92.352 37.8839 92.2874 38.053 92.2178 38.2121C88.2542 48.3322 87.0408 59.3624 88.7814 70.3528C90.1738 79.0954 93.3317 87.2661 98.0312 94.4621C98.0312 94.4621 98.0859 94.5466 98.1854 94.7008C98.265 94.8202 98.3694 94.9793 98.5087 95.1782C98.5982 95.3175 98.6976 95.4667 98.817 95.6308C102.283 100.688 106.525 105.244 111.449 109.128C112.364 109.913 113.328 110.704 114.343 111.51C115.651 112.534 117.048 113.573 118.525 114.608C120.614 116.065 120.823 119.054 118.998 120.819Z" fill="#1C63EB"/>
<path d="M83.9869 109.451C82.679 109.451 81.4557 108.804 80.7047 107.73C77.0794 102.543 74.0608 96.9735 71.6787 91.0556C70.8532 89.0166 71.8378 86.6942 73.8817 85.8687C75.9207 85.0432 78.2481 86.0378 79.0736 88.0767C81.2319 93.4377 83.972 98.4903 87.2542 103.19C89.0943 105.83 87.2045 109.451 83.9869 109.451Z" fill="#1C63EB"/>
</g>
</g>
<rect x="97" y="28" width="22" height="4" rx="2" fill="#1C63EB"/>
<path d="M143.168 46.9997C142.828 46.9994 142.497 46.8929 142.221 46.6951L136.276 42.4486C134.379 41.0908 132.832 39.3007 131.765 37.2263C130.697 35.152 130.139 32.8531 130.137 30.5202V18.3735C130.137 18.1311 130.191 17.8917 130.295 17.6727C130.399 17.4538 130.551 17.2609 130.739 17.1081C130.927 16.9553 131.147 16.8465 131.383 16.7895C131.619 16.7325 131.864 16.7289 132.101 16.7788C133.842 17.1448 135.639 17.1504 137.382 16.7955C139.125 16.4406 140.777 15.7325 142.236 14.715C142.509 14.5242 142.835 14.4219 143.168 14.4219C143.501 14.4219 143.826 14.5242 144.1 14.715C145.559 15.7327 147.21 16.4409 148.953 16.7958C150.697 17.1507 152.494 17.145 154.235 16.7788C154.472 16.7289 154.717 16.7325 154.953 16.7895C155.189 16.8465 155.408 16.9553 155.597 17.1081C155.785 17.2609 155.937 17.4538 156.041 17.6727C156.145 17.8917 156.199 18.1311 156.199 18.3735V30.5202C156.197 32.8531 155.639 35.152 154.571 37.2263C153.503 39.3007 151.957 41.0908 150.06 42.4486L144.114 46.6951C143.838 46.8929 143.507 46.9994 143.168 46.9997Z" fill="#27272A"/>
<path d="M146.467 33.1184H139.643C139.259 33.1184 139.024 32.6953 139.227 32.3688L139.698 31.6078C139.896 31.2905 139.999 30.9226 139.999 30.5478V27.7956C139.999 26.9541 140.342 26.1884 140.891 25.6343C141.443 25.0825 142.207 24.7422 143.053 24.7422C143.899 24.7422 144.66 25.0825 145.214 25.6343C145.766 26.1861 146.111 26.9518 146.111 27.7956V30.5501C146.111 30.9249 146.214 31.2905 146.412 31.6078L146.883 32.3688C147.086 32.6976 146.851 33.1184 146.467 33.1184Z" fill="white"/>
<path d="M144.965 33.125H141.137C141.137 34.0585 141.893 34.8127 142.824 34.8127H143.277C144.211 34.8127 144.965 34.0585 144.965 33.125Z" fill="#27272A"/>
<path d="M146.468 33.3516H139.644C139.379 33.3516 139.143 33.2137 139.014 32.9815C138.885 32.7492 138.892 32.4779 139.032 32.2526L139.504 31.4916C139.678 31.2087 139.77 30.8845 139.77 30.5535V27.799C139.77 26.9229 140.111 26.0975 140.731 25.4767C141.352 24.8559 142.175 24.5156 143.054 24.5156C143.932 24.5156 144.757 24.8559 145.376 25.4767C145.997 26.0975 146.339 26.9229 146.339 27.799V30.5535C146.339 30.8845 146.431 31.2087 146.606 31.4893L147.077 32.2503C147.218 32.4756 147.222 32.7492 147.093 32.9792C146.967 33.2137 146.732 33.3516 146.468 33.3516ZM143.056 24.9755C142.299 24.9755 141.591 25.2698 141.058 25.8009C140.524 26.3366 140.232 27.0448 140.232 27.799V30.5535C140.232 30.9719 140.115 31.3789 139.897 31.7353L139.425 32.4963C139.352 32.6136 139.398 32.7194 139.418 32.7607C139.441 32.7998 139.508 32.8941 139.646 32.8941H146.47C146.608 32.8941 146.675 32.7998 146.698 32.7607C146.721 32.7217 146.765 32.6136 146.691 32.4963L146.22 31.7353C146.001 31.3812 145.884 30.9719 145.884 30.5558V27.799C145.884 27.0448 145.59 26.3343 145.056 25.8009C144.52 25.2698 143.81 24.9755 143.056 24.9755Z" fill="white"/>
<path d="M143.281 35.0352H142.828C141.771 35.0352 140.911 34.1752 140.911 33.1176C140.911 32.9911 141.014 32.8877 141.141 32.8877H144.969C145.095 32.8877 145.199 32.9911 145.199 33.1176C145.199 34.1752 144.339 35.0352 143.281 35.0352ZM141.389 33.3475C141.499 34.0419 142.104 34.5753 142.828 34.5753H143.281C144.008 34.5753 144.61 34.0419 144.721 33.3475H141.389ZM144.07 25.1461C143.944 25.1461 143.84 25.0426 143.84 24.9162V24.4839C143.84 24.2747 143.757 24.0792 143.61 23.9298C143.465 23.7849 143.263 23.7022 143.056 23.7022C142.624 23.7022 142.27 24.0539 142.27 24.4862V24.9185C142.27 25.0449 142.166 25.1484 142.04 25.1484C141.913 25.1484 141.81 25.0449 141.81 24.9185V24.4862C141.81 23.801 142.369 23.2423 143.056 23.2423C143.383 23.2377 143.704 23.3711 143.934 23.6033C144.171 23.8401 144.3 24.1505 144.3 24.4839V24.9162C144.3 25.0426 144.196 25.1461 144.07 25.1461ZM139.071 29.8504C139.002 29.8504 138.933 29.8182 138.887 29.7607C138.133 28.7743 138.563 27.781 138.897 27.3925C138.979 27.2959 139.124 27.2844 139.221 27.3672C139.317 27.4499 139.329 27.5948 139.246 27.6914C139.216 27.7281 138.543 28.5513 139.253 29.4825C139.331 29.5836 139.311 29.7285 139.209 29.8044C139.168 29.8343 139.12 29.8504 139.071 29.8504Z" fill="white"/>
<path d="M138.298 30.8514C138.229 30.8514 138.16 30.8192 138.114 30.7617C136.376 28.4854 138.105 26.4138 138.123 26.3931C138.206 26.2965 138.351 26.285 138.447 26.3678C138.544 26.4506 138.556 26.5954 138.473 26.692C138.408 26.7679 136.971 28.5061 138.48 30.4835C138.556 30.5846 138.537 30.7295 138.436 30.8054C138.397 30.8353 138.346 30.8514 138.298 30.8514Z" fill="white"/>
<path d="M137.427 31.6571C137.358 31.6571 137.289 31.6249 137.243 31.5674C134.866 28.4519 137.227 25.6238 137.253 25.5962C137.335 25.4997 137.48 25.4882 137.577 25.5709C137.673 25.6537 137.685 25.7986 137.602 25.8951C137.515 25.9986 135.462 28.4726 137.609 31.2869C137.687 31.388 137.667 31.5329 137.565 31.6088C137.524 31.641 137.476 31.6571 137.427 31.6571ZM146.958 29.8567C146.905 29.8567 146.852 29.8384 146.808 29.8016C146.712 29.7188 146.7 29.5739 146.783 29.4774C146.813 29.4429 147.487 28.6174 146.776 27.6863C146.7 27.5851 146.719 27.4402 146.82 27.3644C146.921 27.2862 147.066 27.3069 147.142 27.408C147.894 28.3944 147.466 29.3877 147.133 29.7763C147.087 29.8292 147.022 29.8567 146.958 29.8567Z" fill="white"/>
<path d="M147.722 30.8528C147.669 30.8528 147.616 30.8344 147.573 30.7976C147.476 30.7148 147.465 30.57 147.548 30.4734C147.612 30.3975 149.049 28.6593 147.541 26.682C147.465 26.5808 147.483 26.4359 147.584 26.3601C147.685 26.2819 147.83 26.3026 147.906 26.4037C149.644 28.68 147.915 30.7516 147.897 30.7723C147.851 30.8252 147.787 30.8528 147.722 30.8528Z" fill="white"/>
<path d="M148.601 31.6562C148.548 31.6562 148.495 31.6378 148.452 31.601C148.355 31.5182 148.344 31.3734 148.426 31.2768C148.514 31.1734 150.567 28.6994 148.42 25.8851C148.344 25.7839 148.362 25.6391 148.463 25.5632C148.564 25.485 148.709 25.5057 148.785 25.6069C151.163 28.7201 148.801 31.5481 148.776 31.5757C148.732 31.6286 148.668 31.6562 148.601 31.6562Z" fill="white"/>
<rect x="74.1222" y="64.7863" width="67.7223" height="27.09" rx="3.95081" fill="#FAFAFA" stroke="#D7D7D7" stroke-width="0.24438"/>
<path d="M83.0658 70.7716C83.0658 71.0908 83.0061 71.3641 82.8865 71.5917C82.7679 71.8183 82.6059 71.9919 82.4005 72.1124C82.1961 72.2329 81.9642 72.2932 81.7048 72.2932C81.4454 72.2932 81.213 72.2329 81.0076 72.1124C80.8032 71.9909 80.6412 71.8168 80.5217 71.5902C80.4031 71.3627 80.3438 71.0898 80.3438 70.7716C80.3438 70.4524 80.4031 70.1795 80.5217 69.9529C80.6412 69.7254 80.8032 69.5513 81.0076 69.4308C81.213 69.3103 81.4454 69.25 81.7048 69.25C81.9642 69.25 82.1961 69.3103 82.4005 69.4308C82.6059 69.5513 82.7679 69.7254 82.8865 69.9529C83.0061 70.1795 83.0658 70.4524 83.0658 70.7716ZM82.5263 70.7716C82.5263 70.5469 82.4911 70.3574 82.4208 70.2032C82.3513 70.0479 82.2549 69.9308 82.1315 69.8517C82.0081 69.7717 81.8658 69.7316 81.7048 69.7316C81.5438 69.7316 81.4015 69.7717 81.2781 69.8517C81.1547 69.9308 81.0578 70.0479 80.9874 70.2032C80.918 70.3574 80.8832 70.5469 80.8832 70.7716C80.8832 70.9963 80.918 71.1862 80.9874 71.3415C81.0578 71.4957 81.1547 71.6129 81.2781 71.6929C81.4015 71.772 81.5438 71.8115 81.7048 71.8115C81.8658 71.8115 82.0081 71.772 82.1315 71.6929C82.2549 71.6129 82.3513 71.4957 82.4208 71.3415C82.4911 71.1862 82.5263 70.9963 82.5263 70.7716Z" fill="#1C63EB"/>
<path d="M83.3117 69.7403V69.2905H85.6751V69.7403H84.7595V72.2527H84.2273V69.7403H83.3117Z" fill="#1C63EB"/>
<path d="M86.1307 72.2527V69.2905H87.2415C87.4691 69.2905 87.66 69.3329 87.8143 69.4178C87.9695 69.5026 88.0867 69.6193 88.1658 69.7678C88.2458 69.9153 88.2858 70.0831 88.2858 70.2711C88.2858 70.4611 88.2458 70.6298 88.1658 70.7774C88.0857 70.9249 87.9676 71.0411 87.8114 71.126C87.6552 71.2098 87.4628 71.2518 87.2343 71.2518H86.4981V70.8106H87.162C87.2951 70.8106 87.404 70.7875 87.4889 70.7412C87.5737 70.6949 87.6364 70.6313 87.6769 70.5503C87.7184 70.4693 87.7391 70.3762 87.7391 70.2711C87.7391 70.166 87.7184 70.0735 87.6769 69.9934C87.6364 69.9134 87.5732 69.8512 87.4874 69.8069C87.4026 69.7615 87.2931 69.7389 87.1591 69.7389H86.6673V72.2527H86.1307Z" fill="#1C63EB"/>
<rect x="79.9062" y="75.75" width="11.3981" height="11.8203" rx="2.50391" fill="#175ADB"/>
<path d="M86.0253 80.0589V84.1562H85.4051V80.6791H85.3811L84.4008 81.3193V80.7271L85.4231 80.0589H86.0253Z" fill="white"/>
<rect x="94.7812" y="75.75" width="11.3981" height="11.8203" rx="2.50391" fill="#175ADB"/>
<path d="M99.1226 84.1562V83.7081L100.509 82.2716C100.657 82.1156 100.779 81.9789 100.875 81.8615C100.973 81.7428 101.045 81.6301 101.093 81.5234C101.141 81.4167 101.165 81.3033 101.165 81.1833C101.165 81.0473 101.133 80.9299 101.069 80.8312C101.005 80.7312 100.918 80.6545 100.807 80.6011C100.696 80.5464 100.572 80.5191 100.433 80.5191C100.286 80.5191 100.158 80.5491 100.049 80.6091C99.9395 80.6691 99.8555 80.7538 99.7968 80.8632C99.7381 80.9726 99.7088 81.1006 99.7088 81.2473H99.1186C99.1186 80.9979 99.1759 80.7798 99.2906 80.5931C99.4054 80.4064 99.5627 80.2617 99.7628 80.159C99.9629 80.0549 100.19 80.0029 100.445 80.0029C100.702 80.0029 100.929 80.0543 101.125 80.157C101.323 80.2583 101.477 80.397 101.587 80.5731C101.698 80.7478 101.753 80.9452 101.753 81.1653C101.753 81.3173 101.725 81.4661 101.667 81.6114C101.611 81.7568 101.513 81.9189 101.373 82.0976C101.233 82.275 101.039 82.4904 100.789 82.7438L99.9749 83.5961V83.6261H101.819V84.1562H99.1226Z" fill="white"/>
<rect x="109.652" y="75.75" width="11.3981" height="11.8203" rx="2.50391" fill="#175ADB"/>
<path d="M115.244 84.2123C114.969 84.2123 114.724 84.1649 114.508 84.0702C114.293 83.9755 114.123 83.8441 113.998 83.6761C113.874 83.5067 113.807 83.3106 113.798 83.0879H114.426C114.434 83.2093 114.475 83.3146 114.548 83.404C114.623 83.492 114.72 83.5601 114.84 83.6081C114.96 83.6561 115.093 83.6801 115.24 83.6801C115.401 83.6801 115.544 83.6521 115.668 83.5961C115.794 83.5401 115.892 83.462 115.962 83.362C116.033 83.2606 116.068 83.1439 116.068 83.0119C116.068 82.8745 116.033 82.7538 115.962 82.6498C115.893 82.5444 115.791 82.4617 115.656 82.4017C115.523 82.3417 115.361 82.3117 115.172 82.3117H114.826V81.8075H115.172C115.324 81.8075 115.457 81.7802 115.572 81.7255C115.688 81.6708 115.779 81.5948 115.844 81.4974C115.91 81.3987 115.942 81.2833 115.942 81.1513C115.942 81.0246 115.914 80.9145 115.856 80.8212C115.8 80.7265 115.72 80.6525 115.616 80.5991C115.514 80.5458 115.392 80.5191 115.252 80.5191C115.119 80.5191 114.994 80.5438 114.878 80.5931C114.763 80.6411 114.67 80.7105 114.598 80.8012C114.526 80.8905 114.487 80.9979 114.482 81.1233H113.884C113.89 80.9019 113.956 80.7071 114.08 80.5391C114.205 80.371 114.37 80.2397 114.576 80.145C114.781 80.0503 115.009 80.0029 115.26 80.0029C115.523 80.0029 115.75 80.0543 115.94 80.157C116.132 80.2583 116.28 80.3937 116.384 80.5631C116.49 80.7325 116.542 80.9179 116.541 81.1193C116.542 81.3487 116.478 81.5434 116.348 81.7035C116.22 81.8635 116.05 81.9709 115.836 82.0256V82.0576C116.108 82.0989 116.319 82.207 116.468 82.3817C116.619 82.5564 116.694 82.7731 116.693 83.0319C116.694 83.2573 116.631 83.4594 116.504 83.6381C116.379 83.8168 116.208 83.9575 115.99 84.0602C115.773 84.1616 115.524 84.2123 115.244 84.2123Z" fill="white"/>
<rect x="124.539" y="75.75" width="11.3981" height="11.8203" rx="2.50391" fill="#175ADB"/>
<path d="M128.563 83.356V82.8558L130.334 80.0589H130.728V80.7952H130.478L129.212 82.7998V82.8318H131.638V83.356H128.563ZM130.506 84.1562V83.2039L130.51 82.9759V80.0589H131.096V84.1562H130.506Z" fill="white"/>
<path d="M99.0611 59.4059L97.9986 61.9338H97.537L97.9087 61.0788L97.221 59.4059H97.7074L98.1503 60.6048L98.5995 59.4059H99.0611Z" fill="#27272A" fill-opacity="0.5"/>
<path d="M97.1382 59.7622H96.8377V61.1221H96.3978V59.7622H96.2026V59.4059H96.3978V59.3192C96.3978 59.1085 96.4577 58.9536 96.5775 58.8545C96.6973 58.7554 96.878 58.7089 97.1196 58.7151V59.0806C97.0143 59.0786 96.941 59.0961 96.8997 59.1333C96.8584 59.1705 96.8377 59.2376 96.8377 59.3347V59.4059H97.1382V59.7622Z" fill="#27272A" fill-opacity="0.5"/>
<path d="M95.7091 59.2015C95.6327 59.2015 95.5687 59.1777 95.517 59.1302C95.4675 59.0806 95.4427 59.0197 95.4427 58.9474C95.4427 58.8752 95.4675 58.8153 95.517 58.7678C95.5687 58.7182 95.6327 58.6934 95.7091 58.6934C95.7855 58.6934 95.8485 58.7182 95.8981 58.7678C95.9497 58.8153 95.9755 58.8752 95.9755 58.9474C95.9755 59.0197 95.9497 59.0806 95.8981 59.1302C95.8485 59.1777 95.7855 59.2015 95.7091 59.2015ZM95.9228 59.4059V61.1221H95.4891V59.4059H95.9228Z" fill="#27272A" fill-opacity="0.5"/>
<path d="M94.6704 59.6723C94.7262 59.5815 94.7984 59.5102 94.8872 59.4586C94.9781 59.407 95.0814 59.3811 95.197 59.3811V59.8365H95.0824C94.9461 59.8365 94.8428 59.8685 94.7726 59.9326C94.7045 59.9966 94.6704 60.1081 94.6704 60.2671V61.1221H94.2367V59.4059H94.6704V59.6723Z" fill="#27272A" fill-opacity="0.5"/>
<path d="M93.9201 60.2269C93.9201 60.2888 93.916 60.3446 93.9077 60.3941H92.6531C92.6634 60.5181 92.7068 60.6151 92.7832 60.6853C92.8596 60.7556 92.9536 60.7907 93.0651 60.7907C93.2262 60.7907 93.3408 60.7215 93.409 60.5831H93.8768C93.8272 60.7483 93.7322 60.8846 93.5918 60.992C93.4513 61.0974 93.2789 61.15 93.0744 61.15C92.9092 61.15 92.7605 61.1139 92.6283 61.0416C92.4982 60.9672 92.396 60.8629 92.3216 60.7287C92.2494 60.5945 92.2132 60.4396 92.2132 60.264C92.2132 60.0864 92.2494 59.9305 92.3216 59.7963C92.3939 59.662 92.4951 59.5587 92.6252 59.4865C92.7553 59.4142 92.9051 59.378 93.0744 59.378C93.2376 59.378 93.3832 59.4132 93.5112 59.4834C93.6413 59.5536 93.7415 59.6538 93.8117 59.7839C93.884 59.9119 93.9201 60.0596 93.9201 60.2269ZM93.4709 60.1029C93.4689 59.9914 93.4286 59.9026 93.3501 59.8365C93.2716 59.7684 93.1756 59.7343 93.062 59.7343C92.9546 59.7343 92.8638 59.7673 92.7894 59.8334C92.7171 59.8974 92.6727 59.9873 92.6562 60.1029H93.4709Z" fill="#27272A" fill-opacity="0.5"/>
<path d="M92.0647 58.9598L91.2717 61.1221H90.745L89.952 58.9598H90.4166L91.0114 60.6791L91.6031 58.9598H92.0647Z" fill="#27272A" fill-opacity="0.5"/>
<path d="M87.1625 54.8474C87.1625 53.5497 86.2777 52.6909 85.0191 52.6909C83.7279 52.6909 82.8301 53.5627 82.8301 54.939C82.8301 56.3087 83.7544 57.187 85.0191 57.187C86.094 57.187 86.8152 56.5514 87.0509 55.7517H85.8648C85.7272 56.04 85.465 56.2761 84.993 56.2761C84.4425 56.2761 84.0032 55.9158 83.9506 55.2733H87.1295C87.156 55.1291 87.1625 54.985 87.1625 54.8474ZM83.9576 54.5326C84.0427 53.9361 84.4621 53.5953 84.9865 53.5953C85.55 53.5953 86.0089 53.9556 86.022 54.5326H83.9576Z" fill="#27272A"/>
<path d="M88.9714 56.2168L90.8916 53.654V52.7627H87.7323V53.667H89.6265L87.7258 56.2298V57.1146H90.9177V56.2168H88.9714Z" fill="#27272A"/>
<path d="M93.0471 55.7699V51.6867H91.9395V52.7616H91.4216V53.666H91.9395V55.7634C91.9395 56.7663 92.4966 57.1136 93.3293 57.1136H94.0239V56.1893H93.5125C93.1652 56.1897 93.0471 56.0651 93.0471 55.7699Z" fill="#27272A"/>
<path d="M96.7851 52.6909C95.5269 52.6909 94.5436 53.5627 94.5436 54.939C94.5436 56.3087 95.4939 57.187 96.7521 57.187C98.0172 57.187 99.0266 56.3087 99.0266 54.939C99.0266 53.5627 98.0433 52.6909 96.7851 52.6909ZM96.7521 56.2301C96.1621 56.2301 95.6576 55.8042 95.6576 54.939C95.6576 54.0672 96.1886 53.6543 96.7651 53.6543C97.3486 53.6543 97.8926 54.0672 97.8926 54.939C97.8926 55.8042 97.3356 56.2301 96.7521 56.2301Z" fill="#27272A"/>
<path d="M94.2138 52.7627H93.3094V53.667H94.2138V52.7627Z" fill="#1C63EB"/>
<path d="M79.3979 57.9794C78.2591 57.3699 77.4898 56.2897 77.2879 55.0155C77.1038 53.8567 77.4312 52.6871 78.1545 51.7958L78.1553 51.7949C78.1562 51.7932 78.1588 51.7902 78.1627 51.7854C78.1679 51.7793 78.1731 51.7728 78.1779 51.7671C78.1822 51.7619 78.1866 51.7567 78.1918 51.7506C78.2022 51.7381 78.2148 51.7237 78.2287 51.7072C78.2704 51.6582 78.3138 51.6104 78.3585 51.5635L78.3589 51.5627C78.533 51.3378 78.3776 51 78.0828 51H78.0802C77.9821 51 77.8896 51.0408 77.8236 51.1124C77.8236 51.1124 77.8228 51.1133 77.8219 51.1142C77.8141 51.1224 77.8063 51.1315 77.798 51.1407C77.6448 51.3078 77.5041 51.4849 77.3778 51.6703C77.3513 51.709 77.3239 51.7485 77.2974 51.7893C77.2866 51.8054 77.2762 51.8214 77.2662 51.8379C77.1898 51.9603 77.1186 52.0858 77.0543 52.2143C76.6063 53.0987 76.4356 54.1155 76.5954 55.1257C76.7148 55.8777 77.0005 56.5702 77.445 57.1828C77.8683 57.7671 78.4297 58.2564 79.067 58.5981C79.1374 58.6354 79.2147 58.6467 79.2872 58.635C79.3918 58.6185 79.4877 58.5547 79.5416 58.4544C79.6327 58.2833 79.5689 58.071 79.3979 57.9794Z" fill="#1C63EB"/>
<path d="M81.1297 51.2601C81.0976 51.1429 81.0094 51.056 80.9022 51.02C80.8475 51.0009 80.7867 50.9944 80.7251 51.0052C79.8377 51.1624 79.0605 51.6539 78.5365 52.3876C78.0116 53.1235 77.801 54.0196 77.9426 54.9122C78.1206 56.0332 78.8378 56.9879 79.8646 57.4724C79.8707 57.4758 79.8772 57.4798 79.8837 57.4828C79.9497 57.5158 80.0226 57.5253 80.0916 57.5145H80.096C80.0968 57.5145 80.0981 57.514 80.099 57.5136C80.1099 57.5119 80.1203 57.5093 80.1307 57.5067C80.1355 57.5058 80.1403 57.5041 80.1446 57.5023C80.1529 57.4997 80.162 57.4967 80.1702 57.4936C80.1776 57.4906 80.1841 57.4876 80.1915 57.4841C80.1945 57.4824 80.1976 57.4811 80.2015 57.4789C80.2688 57.4446 80.3256 57.389 80.3595 57.3143C80.3595 57.3143 80.3599 57.3135 80.3604 57.3126C80.4446 57.1676 80.5262 57.0187 80.6005 56.8689C80.7698 56.5281 80.9113 56.1769 81.0255 55.8178C81.1041 55.5686 80.8948 55.3233 80.6369 55.3641C80.5063 55.385 80.3986 55.4779 80.3582 55.6038C80.2549 55.9294 80.1264 56.2476 79.9731 56.5572C79.9497 56.6041 79.9245 56.6501 79.9006 56.6961C79.2251 56.2824 78.7601 55.5951 78.6342 54.8023C78.4206 53.4547 79.2546 52.161 80.5301 51.772C80.6378 52.2691 80.8093 53.2429 80.7107 54.0473H79.2607C79.067 54.0473 78.9094 54.2041 78.9094 54.3986C78.9094 54.5805 79.0479 54.7298 79.2251 54.7476C79.2364 54.7485 79.2485 54.7494 79.2607 54.7494H81.006C81.1744 54.7494 81.3146 54.6317 81.3485 54.4737C81.3494 54.4711 81.3502 54.4685 81.3502 54.4659C81.6377 53.1473 81.1505 51.3374 81.1297 51.2601Z" fill="#1C63EB"/>
<path d="M78.6268 59.627C78.625 59.6288 78.6233 59.6305 78.6215 59.6322C78.5035 59.7464 78.3202 59.7625 78.1839 59.6704C76.423 58.4796 75.8499 57.0868 75.8273 57.0308C75.8269 57.0299 75.8269 57.0291 75.8269 57.0291C75.5716 56.499 75.3923 55.9285 75.2977 55.3311C75.17 54.5236 75.2039 53.7148 75.3906 52.9424C75.3914 52.9381 75.3928 52.9341 75.3936 52.9298C75.4092 52.8651 75.4253 52.8017 75.444 52.7375C75.4457 52.7305 75.4475 52.7236 75.4496 52.7166C75.5091 52.5052 75.5799 52.2959 75.6628 52.091L75.6632 52.0902C75.6676 52.0819 75.6715 52.0728 75.6754 52.0645C75.6789 52.055 75.6823 52.0463 75.6849 52.0368C75.7036 51.9742 75.6984 51.9035 75.6598 51.8357C75.6198 51.7658 75.549 51.7159 75.4692 51.7055C75.3663 51.692 75.2738 51.7376 75.2204 51.8132C75.2152 51.8232 75.2065 51.8396 75.2013 51.8501C75.1935 51.8692 75.1857 51.8887 75.1778 51.9078C75.0914 52.1223 75.0168 52.3407 74.9538 52.5616C74.943 52.5977 74.933 52.6341 74.9234 52.6702C74.9147 52.7032 74.9061 52.7357 74.8978 52.7687C74.8969 52.7731 74.8956 52.777 74.8948 52.7813C74.6829 53.6366 74.6438 54.5305 74.7836 55.4132C74.8093 55.5747 74.8409 55.7375 74.8783 55.8964C74.9226 56.0848 74.8058 56.2736 74.6178 56.3179C74.6091 56.3201 74.6004 56.3214 74.5917 56.3231C74.4124 56.3514 74.2388 56.2367 74.1962 56.057C74.1545 55.8816 74.1189 55.7019 74.0912 55.5226C73.8862 54.2314 74.0282 52.9185 74.5027 51.7098L74.5071 51.6972C74.5266 51.6391 74.5514 51.5831 74.5765 51.5271C74.5809 51.5175 74.5848 51.5075 74.5891 51.498C74.6104 51.4593 74.6352 51.4224 74.6612 51.3868C74.6612 51.3868 74.6621 51.386 74.6629 51.3851C74.6725 51.3725 74.682 51.3599 74.6925 51.3478C74.8687 51.1355 75.1353 51 75.4327 51C75.681 51 75.9077 51.0942 76.0791 51.2496C76.2745 51.4263 76.3978 51.6821 76.3978 51.966C76.3978 52.015 76.3926 52.0628 76.3852 52.1101C76.3835 52.1197 76.3822 52.1292 76.3804 52.1388C76.3796 52.1444 76.3787 52.1509 76.3778 52.1566C76.3761 52.1648 76.3744 52.1739 76.3726 52.1826C76.3709 52.1887 76.3696 52.1952 76.3679 52.2013C76.367 52.2061 76.3657 52.21 76.3648 52.2143C76.3631 52.2195 76.3618 52.2247 76.36 52.2304C76.3579 52.2399 76.3553 52.2491 76.3527 52.2586C76.3509 52.2629 76.3496 52.2669 76.3475 52.2712C76.3362 52.3059 76.3223 52.3402 76.3062 52.3728C76.3006 52.3867 76.2949 52.4014 76.2888 52.4153C75.9428 53.2988 75.8369 54.2618 75.9888 55.2213C76.1104 55.9845 76.3861 56.6978 76.7964 57.326C76.7964 57.326 76.8011 57.3334 76.8098 57.3469C76.8168 57.3573 76.8259 57.3712 76.838 57.3885C76.8459 57.4007 76.8545 57.4137 76.865 57.4281C77.1676 57.8696 77.5379 58.2673 77.9677 58.6063C78.0476 58.6749 78.1318 58.744 78.2204 58.8143C78.3346 58.9037 78.4566 58.9945 78.5855 59.0848C78.7679 59.212 78.7861 59.4729 78.6268 59.627Z" fill="#1C63EB"/>
<path d="M75.5704 58.632C75.4562 58.632 75.3494 58.5755 75.2838 58.4818C74.9673 58.0289 74.7038 57.5427 74.4958 57.0261C74.4238 56.8481 74.5097 56.6453 74.6882 56.5732C74.8662 56.5012 75.0693 56.588 75.1414 56.766C75.3298 57.234 75.5691 57.6751 75.8556 58.0854C76.0162 58.3159 75.8513 58.632 75.5704 58.632Z" fill="#1C63EB"/>
</g>
<defs>
<filter id="filter0_d_2570_3029" x="61" y="20" width="93" height="104" filterUnits="userSpaceOnUse" color-interpolation-filters="sRGB">
<feFlood flood-opacity="0" result="BackgroundImageFix"/>
<feColorMatrix in="SourceAlpha" type="matrix" values="0 0 0 0 0 0 0 0 0 0 0 0 0 0 0 0 0 0 127 0" result="hardAlpha"/>
<feOffset/>
<feGaussianBlur stdDeviation="1"/>
<feComposite in2="hardAlpha" operator="out"/>
<feColorMatrix type="matrix" values="0 0 0 0 0 0 0 0 0 0.178509 0 0 0 0 0.520443 0 0 0 0.75 0"/>
<feBlend mode="normal" in2="BackgroundImageFix" result="effect1_dropShadow_2570_3029"/>
<feBlend mode="normal" in="SourceGraphic" in2="effect1_dropShadow_2570_3029" result="shape"/>
</filter>
<clipPath id="clip0_2570_3029">
<rect width="206" height="100" fill="white"/>
</clipPath>
</defs>
</svg>
