<svg width="206" height="100" viewBox="0 0 206 100" fill="none" xmlns="http://www.w3.org/2000/svg">
<path d="M194 0H12C5.37258 0 0 5.37258 0 12V88C0 94.6274 5.37258 100 12 100H194C200.627 100 206 94.6274 206 88V12C206 5.37258 200.627 0 194 0Z" fill="white"/>
<g filter="url(#filter0_i_2881_3555)">
<g clip-path="url(#clip0_2881_3555)">
<rect x="76.1896" y="5.64277" width="53.6717" height="82.9179" rx="26.8358" fill="#1C63EB" fill-opacity="0.12" stroke="#1C63EB" stroke-width="1.28555"/>
<path d="M85.0283 108.038C83.5156 107.901 82.4498 106.262 82.106 105.46C81.7623 103.626 81.2122 99.4439 81.7623 97.3812L81.7622 97.3811C80.3871 96.006 80.0433 95.6622 79.1838 93.7714C77.8087 91.7087 78.84 89.1302 78.84 88.7864C78.84 88.4426 84.5126 73.3159 86.7472 68.3309C89.3256 63.8617 93.9668 64.5493 95.342 64.8927C96.3046 64.7549 98.4934 64.3767 99.4674 64.2048V63.861C95.342 62.1413 94.1387 60.08 93.623 59.3924C93.1073 58.7048 90.8727 55.2669 90.1851 51.4852C87.091 50.9696 86.2315 49.0787 85.8877 46.6722C85.5439 44.2657 86.0596 43.5781 86.7472 43.2343C87.091 42.2029 86.7472 41.3434 86.5753 40.6559C86.4034 39.9683 86.2315 40.6559 85.5439 37.3899C84.9939 34.7771 86.1169 32.0611 86.7472 31.0298C85.945 30.9725 84.5126 30.7203 85.2002 30.1703C86.7472 29.6546 87.9505 27.2481 88.2943 25.8729C88.6381 24.4977 89.6694 22.6062 90.8727 22.0912C92.076 21.5762 96.2014 20.2004 98.2642 18.6531C99.6393 16.7622 105.656 17.6217 107.375 19.5121C111.5 17.965 116.657 21.4029 117.001 22.6062C117.345 23.8095 118.548 26.216 120.095 27.763C121.642 29.3101 121.642 30.3415 121.642 31.5447C121.642 32.748 121.298 34.8107 120.267 36.014C121.126 37.2173 120.782 42.0303 119.235 43.0617C120.782 44.0931 120.611 46.4996 120.095 48.2185C119.579 49.9375 117.173 51.6564 115.969 51.6564C115.797 52.6878 112.703 59.7355 111.328 61.1107C110.228 62.2108 108.234 63.4026 107.375 63.861V64.2048C108.062 64.2621 109.816 64.4799 111.328 64.8927C115.969 63.6894 120.095 67.8149 120.439 68.8463C120.782 69.8776 122.501 74.175 122.845 75.2064C123.189 76.2377 125.767 83.6292 127.143 86.8952C128.518 90.1612 128.174 91.3645 128.174 92.0521C128.174 92.7397 127.314 96.1776 124.908 97.5527C125.424 100.991 125.08 103.397 124.908 104.429C124.736 105.46 123.877 107.695 121.986 108.038C120.095 108.382 118.72 107.351 118.032 106.491C118.204 108.21 117.86 108.382 117.516 108.382C117.173 108.382 92.5916 108.554 90.7008 108.382C88.8099 108.21 88.6381 108.898 88.6381 106.491C88.2943 107.179 86.9191 108.21 85.0283 108.038Z" fill="white"/>
<path d="M119.235 43.0617C120.782 44.0931 120.611 46.4996 120.095 48.2185C119.579 49.9375 117.173 51.6564 115.969 51.6564C115.797 52.6878 112.703 59.7355 111.328 61.1107C110.228 62.2108 108.234 63.4026 107.375 63.861V64.2048C108.062 64.2621 109.816 64.4799 111.328 64.8927C115.969 63.6894 120.095 67.8149 120.439 68.8463C120.782 69.8776 122.501 74.175 122.845 75.2064C123.189 76.2377 125.767 83.6292 127.143 86.8952C128.518 90.1612 128.174 91.3645 128.174 92.0521C128.174 92.7397 127.314 96.1776 124.908 97.5527C125.424 100.991 125.08 103.397 124.908 104.429C124.736 105.46 123.877 107.695 121.986 108.038C120.095 108.382 118.72 107.351 118.032 106.491C118.204 108.21 117.86 108.382 117.516 108.382C117.173 108.382 92.5916 108.554 90.7008 108.382C88.8099 108.21 88.6381 108.898 88.6381 106.491C88.2943 107.179 86.9191 108.21 85.0283 108.038C83.5156 107.901 82.4498 106.262 82.106 105.46C81.7623 103.626 81.2122 99.4439 81.7623 97.3812C80.3871 96.006 80.0433 95.6622 79.1838 93.7714C77.8087 91.7087 78.84 89.1302 78.84 88.7864C78.84 88.4426 84.5126 73.3159 86.7472 68.3309C89.3256 63.8617 93.9668 64.5493 95.342 64.8927C96.3046 64.7549 98.4934 64.3767 99.4674 64.2048C99.4674 64.1477 99.4674 63.9991 99.4674 63.861C95.342 62.1413 94.1387 60.08 93.623 59.3924C93.1073 58.7048 90.8727 55.2669 90.1851 51.4852C87.091 50.9696 86.2315 49.0787 85.8877 46.6722C85.5439 44.2657 86.0596 43.5781 86.7472 43.2343M119.235 43.0617C120.782 42.0303 121.126 37.2173 120.267 36.014C121.298 34.8107 121.642 32.748 121.642 31.5447C121.642 30.3415 121.642 29.3101 120.095 27.763C118.548 26.216 117.345 23.8095 117.001 22.6062C116.657 21.4029 111.5 17.965 107.375 19.5121C105.656 17.6217 99.6393 16.7622 98.2642 18.6531C96.2014 20.2004 92.076 21.5762 90.8727 22.0912C89.6694 22.6062 88.6381 24.4977 88.2943 25.8729C87.9505 27.2481 86.7472 29.6546 85.2002 30.1703C84.5126 30.7203 85.945 30.9725 86.7472 31.0298C86.1169 32.0611 84.9939 34.7771 85.5439 37.3899C86.2315 40.6559 86.4034 39.9683 86.5753 40.6559C86.7472 41.3434 87.091 42.2029 86.7472 43.2343M119.235 43.0617C118.032 42.4016 115.797 43.2343 114.938 43.0617C114.079 42.8891 114.422 43.2343 113.047 42.0028C111.672 40.7714 111.328 37.5336 110.813 34.0957C110.297 30.6578 108.75 31.3453 107.89 30.8297C108.234 32.5486 105.656 38.0492 103.077 38.7368C100.499 39.4244 101.186 38.393 101.358 38.2211C101.53 38.0492 103.421 35.6427 103.249 32.7205C102.905 35.9865 97.5766 39.2525 94.4825 40.4558C93.1073 43.2061 91.7322 43.7218 89.6694 43.0617C88.0193 42.5336 87.0337 42.9567 86.7472 43.2343" stroke="#8E1B1B" stroke-width="0.39321" stroke-linecap="round"/>
<path d="M119.235 43.0617C120.782 44.0931 120.611 46.4996 120.095 48.2185C119.579 49.9375 117.173 51.6564 115.969 51.6564C115.797 52.6878 112.703 59.7355 111.328 61.1107C110.228 62.2108 108.234 63.4026 107.375 63.861V64.2048C108.062 64.2621 109.816 64.4799 111.328 64.8927C115.969 63.6894 120.095 67.8149 120.439 68.8463C120.782 69.8776 122.501 74.175 122.845 75.2064C123.189 76.2377 125.767 83.6292 127.143 86.8952C128.518 90.1612 128.174 91.3645 128.174 92.0521C128.174 92.7397 127.314 96.1776 124.908 97.5527C125.424 100.991 125.08 103.397 124.908 104.429C124.736 105.46 123.877 107.695 121.986 108.038C120.095 108.382 118.72 107.351 118.032 106.491C118.204 108.21 117.86 108.382 117.516 108.382C117.173 108.382 92.5916 108.554 90.7008 108.382C88.8099 108.21 88.6381 108.898 88.6381 106.491C88.2943 107.179 86.9191 108.21 85.0283 108.038C83.5156 107.901 82.4498 106.262 82.106 105.46C81.7623 103.626 81.2122 99.4439 81.7623 97.3812C80.3871 96.006 80.0433 95.6622 79.1838 93.7714C77.8087 91.7087 78.84 89.1302 78.84 88.7864C78.84 88.4426 84.5126 73.3159 86.7472 68.3309C89.3256 63.8617 93.9668 64.5493 95.342 64.8927C96.3046 64.7549 98.4934 64.3766 99.4674 64.2048C99.4674 64.1477 99.4674 63.9991 99.4674 63.861C95.342 62.1413 94.1387 60.08 93.623 59.3924C93.1073 58.7048 90.8727 55.2669 90.1851 51.4852C87.091 50.9696 86.2315 49.0787 85.8877 46.6722C85.5439 44.2657 86.0596 43.5781 86.7472 43.2343M119.235 43.0617C120.782 42.0303 121.126 37.2173 120.267 36.014C121.298 34.8107 121.642 32.748 121.642 31.5447C121.642 30.3415 121.642 29.3101 120.095 27.763C118.548 26.216 117.344 23.8095 117.001 22.6062C116.657 21.4029 111.5 17.965 107.375 19.5121C105.656 17.6217 99.6393 16.7622 98.2642 18.6531C96.2014 20.2004 92.076 21.5762 90.8727 22.0912C89.6694 22.6062 88.6381 24.4977 88.2943 25.8729C87.9505 27.2481 86.7472 29.6546 85.2002 30.1703C84.5126 30.7203 85.945 30.9725 86.7472 31.0298C86.1169 32.0611 84.9939 34.7771 85.5439 37.3899C86.2315 40.6559 86.4034 39.9683 86.5753 40.6559C86.7472 41.3434 87.091 42.2029 86.7472 43.2343M119.235 43.0617C118.032 42.4016 115.797 43.2343 114.938 43.0617C114.079 42.8891 114.422 43.2343 113.047 42.0028C111.672 40.7714 111.328 37.5336 110.813 34.0957C110.297 30.6578 108.75 31.3453 107.89 30.8297C108.234 32.5486 105.656 38.0492 103.077 38.7368C100.499 39.4244 101.186 38.393 101.358 38.2211C101.53 38.0492 103.421 35.6427 103.249 32.7205C102.905 35.9865 97.5766 39.2525 94.4825 40.4558C93.1073 43.2061 91.7322 43.7218 89.6694 43.0617C88.0193 42.5336 87.0337 42.9567 86.7472 43.2343" stroke="#1C63EB" stroke-width="1.22572" stroke-linecap="round"/>
<path d="M108.855 44.6559C107.774 45.3436 107.823 47.303 108.855 47.9219C110.574 48.9535 110.402 44.1404 108.855 44.6559Z" fill="#1C63EB" stroke="#1C63EB" stroke-width="0.39321" stroke-linecap="round"/>
<path d="M107.204 55.1038C105.554 55.5164 101.474 55.2757 99.6407 55.1038C99.125 54.7601 97.9218 55.7913 100.844 58.0261C104.282 60.0889 106.001 58.3698 106.688 58.0261C107.376 57.6823 109.267 54.5882 107.204 55.1038Z" stroke="#1A5EDE" stroke-width="0.88069" stroke-linecap="round"/>
<path d="M96.714 44.445C95.6333 45.1327 95.6827 47.092 96.714 47.711C98.4329 48.7425 98.261 43.9295 96.714 44.445Z" fill="#1C63EB" stroke="#1C63EB" stroke-width="0.39321" stroke-linecap="round"/>
</g>
</g>
<rect x="99.1484" y="82.7266" width="9.83456" height="8.8511" fill="white"/>
<path fill-rule="evenodd" clip-rule="evenodd" d="M94.2266 86.4168C94.2266 81.1211 98.5196 76.8281 103.815 76.8281C109.111 76.8281 113.404 81.1211 113.404 86.4168C113.404 91.7125 109.111 96.0055 103.815 96.0055C98.5196 96.0055 94.2266 91.7125 94.2266 86.4168ZM107.366 84.6328C107.603 84.3013 107.526 83.8406 107.194 83.6038C106.863 83.3671 106.402 83.4438 106.165 83.7753L102.984 88.23L101.386 86.6329C101.098 86.3448 100.631 86.3448 100.343 86.6329C100.055 86.9209 100.055 87.3879 100.343 87.676L102.556 89.8887C102.709 90.0421 102.922 90.1201 103.139 90.1023C103.355 90.0844 103.552 89.9723 103.678 89.7959L107.366 84.6328Z" fill="#27272A"/>
<defs>
<filter id="filter0_i_2881_3555" x="75.6016" y="5" width="54.7734" height="84.2031" filterUnits="userSpaceOnUse" color-interpolation-filters="sRGB">
<feFlood flood-opacity="0" result="BackgroundImageFix"/>
<feBlend mode="normal" in="SourceGraphic" in2="BackgroundImageFix" result="shape"/>
<feColorMatrix in="SourceAlpha" type="matrix" values="0 0 0 0 0 0 0 0 0 0 0 0 0 0 0 0 0 0 127 0" result="hardAlpha"/>
<feOffset/>
<feGaussianBlur stdDeviation="4.96543"/>
<feComposite in2="hardAlpha" operator="arithmetic" k2="-1" k3="1"/>
<feColorMatrix type="matrix" values="0 0 0 0 0 0 0 0 0 0 0 0 0 0 0 0 0 0 0.12 0"/>
<feBlend mode="normal" in2="shape" result="effect1_innerShadow_2881_3555"/>
</filter>
<clipPath id="clip0_2881_3555">
<rect x="75.6016" y="5" width="54.7731" height="84.2034" rx="27.3866" fill="white"/>
</clipPath>
</defs>
</svg>
