<svg xmlns="http://www.w3.org/2000/svg" width="206" height="100" viewBox="0 0 206 100" fill="none"><g clip-path="url(#clip0_3967_60)"><path d="M194 0H12C5.37258 0 0 5.37258 0 12V88C0 94.6274 5.37258 100 12 100H194C200.627 100 206 94.6274 206 88V12C206 5.37258 200.627 0 194 0Z" fill="white"></path><g filter="url(#filter0_d_3967_60)"><rect x="63" y="22" width="89" height="100" rx="12" fill="#E0EBFF"></rect></g><rect x="66" y="25" width="82.88" height="92" rx="10" fill="white"></rect><mask id="mask0_3967_60" style="mask-type:alpha" maskUnits="userSpaceOnUse" x="66" y="25" width="83" height="92"><rect x="66" y="25" width="82.88" height="92" rx="10" fill="white"></rect></mask><g mask="url(#mask0_3967_60)"><g opacity="0.04"><path d="M127.835 101.947C114.79 94.9644 105.978 82.5915 103.666 67.9956C101.557 54.7226 105.307 41.3252 113.592 31.1156C113.592 31.1156 113.597 31.1106 113.602 31.1056C113.612 31.0857 113.642 31.0509 113.686 30.9962C113.746 30.9266 113.806 30.852 113.86 30.7874C113.91 30.7277 113.96 30.668 114.019 30.5984C114.139 30.4542 114.283 30.2901 114.442 30.1011C114.92 29.5391 115.417 28.9921 115.929 28.455C115.929 28.45 115.934 28.4451 115.934 28.4451C117.928 25.869 116.148 22 112.771 22H112.741C111.617 22 110.558 22.4675 109.802 23.288C109.797 23.293 109.792 23.298 109.782 23.3079C109.693 23.4024 109.603 23.5068 109.509 23.6113C107.753 25.5259 106.142 27.5549 104.695 29.6784C104.392 30.121 104.078 30.5735 103.775 31.041C103.651 31.225 103.531 31.409 103.417 31.598C102.542 33.0004 101.726 34.4376 100.99 35.9096C95.8579 46.0397 93.9035 57.6865 95.7336 69.2588C97.1012 77.8721 100.373 85.8041 105.466 92.821C110.315 99.5147 116.745 105.119 124.045 109.033C124.851 109.461 125.736 109.59 126.566 109.456C127.765 109.267 128.864 108.536 129.481 107.387C130.525 105.428 129.794 102.996 127.835 101.947Z" fill="#1C63EB"></path><path d="M147.666 24.9792C147.298 23.6365 146.288 22.6419 145.06 22.2291C144.433 22.0103 143.737 21.9357 143.031 22.0601C132.866 23.8603 123.964 29.4898 117.962 37.8942C111.949 46.3235 109.537 56.5879 111.159 66.8124C113.198 79.6528 121.413 90.5885 133.174 96.1384C133.244 96.1782 133.318 96.223 133.393 96.2578C134.149 96.6357 134.984 96.7451 135.775 96.6208H135.825C135.835 96.6208 135.85 96.6158 135.86 96.6109C135.984 96.591 136.103 96.5611 136.223 96.5313C136.277 96.5213 136.332 96.5015 136.382 96.4816C136.476 96.4517 136.581 96.4169 136.675 96.3821C136.76 96.3473 136.834 96.3125 136.919 96.2727C136.954 96.2528 136.989 96.2379 137.033 96.213C137.804 95.8202 138.456 95.1836 138.844 94.3282C138.848 94.3233 138.848 94.3183 138.853 94.3083C139.818 92.6473 140.753 90.9416 141.604 89.2259C143.543 85.3221 145.164 81.2989 146.472 77.1862C147.372 74.3317 144.975 71.5219 142.021 71.9894C140.524 72.2281 139.291 73.2923 138.829 74.7345C137.645 78.4643 136.173 82.1095 134.418 85.6553C134.149 86.1924 133.861 86.7195 133.587 87.2466C125.849 82.5073 120.523 74.635 119.081 65.5542C116.634 50.1179 126.187 35.2983 140.798 30.8425C142.031 36.5366 143.996 47.6911 142.867 56.9061H126.257C124.039 56.9061 122.234 58.7014 122.234 60.9293C122.234 63.013 123.82 64.7238 125.849 64.9276C125.978 64.9376 126.117 64.9475 126.257 64.9475H146.248C148.178 64.9475 149.784 63.5998 150.172 61.7897C150.182 61.7598 150.192 61.73 150.192 61.7001C153.484 46.597 147.904 25.8644 147.666 24.9792Z" fill="#1C63EB"></path><path d="M118.998 120.82C118.978 120.84 118.958 120.86 118.938 120.88C117.585 122.188 115.487 122.372 113.925 121.318C93.7544 107.677 87.19 91.7232 86.9314 91.0817C86.9264 91.0717 86.9264 91.0618 86.9264 91.0618C84.0023 84.9897 81.9484 78.4551 80.8643 71.6122C79.4022 62.3624 79.7901 53.0976 81.9285 44.2506C81.9385 44.2009 81.9534 44.1561 81.9634 44.1064C82.1424 43.3654 82.3264 42.6393 82.5402 41.9033C82.5601 41.8237 82.58 41.7442 82.6049 41.6646C83.2862 39.2427 84.0968 36.8457 85.0466 34.4985C85.0466 34.4935 85.0466 34.4935 85.0516 34.4885C85.1013 34.394 85.1461 34.2896 85.1909 34.1951C85.2306 34.0857 85.2704 33.9862 85.3003 33.8768C85.5141 33.1607 85.4544 32.3501 85.0118 31.5743C84.5543 30.7737 83.7437 30.2018 82.8287 30.0824C81.6501 29.9282 80.5908 30.4504 79.9791 31.3157C79.9194 31.4301 79.82 31.6191 79.7603 31.7384C79.6708 31.9572 79.5813 32.181 79.4918 32.3998C78.5021 34.8565 77.6468 37.358 76.9257 39.8892C76.8013 40.302 76.687 40.7197 76.5776 41.1325C76.4781 41.5104 76.3786 41.8834 76.2841 42.2614C76.2742 42.3111 76.2593 42.3559 76.2493 42.4056C73.8225 52.2025 73.3749 62.4419 74.9762 72.5521C75.2696 74.4021 75.6327 76.267 76.0604 78.0871C76.5676 80.2454 75.2299 82.4087 73.0765 82.9159C72.9771 82.9408 72.8776 82.9557 72.7782 82.9756C70.7243 83.2989 68.7351 81.986 68.2477 79.9271C67.7703 77.918 67.3625 75.8592 67.0442 73.8053C64.697 59.0155 66.3231 43.9771 71.7587 30.1321L71.8084 29.9879C72.0322 29.3215 72.3157 28.68 72.6041 28.0385C72.6538 27.9291 72.6986 27.8147 72.7483 27.7053C72.992 27.2627 73.2755 26.84 73.5738 26.4322C73.5788 26.4272 73.5838 26.4222 73.5937 26.4123C73.7031 26.2681 73.8125 26.1239 73.9319 25.9846C75.9509 23.5528 79.0044 22.0012 82.4109 22.0012C85.2555 22.0012 87.8514 23.0804 89.8158 24.8607C92.0536 26.8847 93.466 29.8139 93.466 33.0662C93.466 33.6282 93.4063 34.1752 93.3218 34.7173C93.3019 34.8267 93.287 34.9361 93.2671 35.0455C93.2571 35.1101 93.2472 35.1847 93.2372 35.2494C93.2173 35.3439 93.1975 35.4483 93.1776 35.5478C93.1577 35.6174 93.1427 35.692 93.1229 35.7616C93.1129 35.8163 93.098 35.8611 93.088 35.9108C93.0682 35.9705 93.0532 36.0302 93.0333 36.0948C93.0085 36.2042 92.9786 36.3086 92.9488 36.4181C92.9289 36.4678 92.914 36.5125 92.8891 36.5623V36.5672C92.7598 36.9651 92.6007 37.353 92.4167 37.726C92.352 37.8851 92.2874 38.0542 92.2178 38.2133C88.2542 48.3334 87.0408 59.3636 88.7814 70.354C90.1738 79.0966 93.3317 87.2673 98.0312 94.4633C98.0312 94.4633 98.0859 94.5479 98.1854 94.702C98.265 94.8214 98.3694 94.9805 98.5087 95.1794C98.5982 95.3187 98.6976 95.4679 98.817 95.632C102.283 100.69 106.525 105.245 111.449 109.129C112.364 109.915 113.328 110.705 114.343 111.511C115.651 112.535 117.048 113.575 118.525 114.609C120.614 116.066 120.823 119.055 118.998 120.82Z" fill="#1C63EB"></path><path d="M83.9882 109.452C82.6803 109.452 81.4569 108.806 80.706 107.732C77.0806 102.545 74.062 96.9749 71.6799 91.0569C70.8544 89.018 71.839 86.6956 73.883 85.8701C75.9219 85.0445 78.2493 86.0391 79.0748 88.0781C81.2331 93.439 83.9732 98.4916 87.2555 103.191C89.0955 105.832 87.2057 109.452 83.9882 109.452Z" fill="#1C63EB"></path></g></g><rect x="97" y="28" width="22" height="4" rx="2" fill="#1C63EB"></rect><g filter="url(#filter1_d_3967_60)"><path d="M104.388 45.2284C105.733 43.5664 108.267 43.5664 109.612 45.2284C110.586 46.4332 112.259 46.8149 113.66 46.1523C115.592 45.2382 117.875 46.3378 118.365 48.4185C118.721 49.9269 120.062 50.9964 121.612 51.0073C123.749 51.0222 125.329 53.0036 124.868 55.0909C124.534 56.6041 125.278 58.1496 126.67 58.8318C128.589 59.7727 129.153 62.2434 127.832 63.924C126.874 65.1423 126.874 66.8577 127.832 68.076C129.153 69.7566 128.589 72.2273 126.67 73.1682C125.278 73.8504 124.534 75.3959 124.868 76.9091C125.329 78.9964 123.749 80.9778 121.612 80.9927C120.062 81.0036 118.721 82.0731 118.365 83.5815C117.875 85.6622 115.592 86.7618 113.66 85.8477C112.259 85.1851 110.586 85.5668 109.612 86.7716C108.267 88.4336 105.733 88.4336 104.388 86.7716C103.414 85.5668 101.741 85.1851 100.34 85.8477C98.4081 86.7618 96.1248 85.6622 95.6346 83.5815C95.2792 82.0731 93.938 81.0036 92.3884 80.9927C90.2508 80.9778 88.6707 78.9964 89.1318 76.9091C89.4661 75.3959 88.7218 73.8504 87.3303 73.1682C85.4108 72.2273 84.8469 69.7566 86.168 68.076C87.1258 66.8577 87.1258 65.1423 86.168 63.924C84.8469 62.2434 85.4108 59.7727 87.3303 58.8318C88.7218 58.1496 89.4661 56.6041 89.1318 55.0909C88.6707 53.0036 90.2508 51.0222 92.3884 51.0073C93.938 50.9964 95.2792 49.9269 95.6346 48.4185C96.1248 46.3378 98.4081 45.2382 100.34 46.1523C101.741 46.8149 103.414 46.4332 104.388 45.2284Z" fill="white"></path><path d="M104.388 45.2284C105.733 43.5664 108.267 43.5664 109.612 45.2284C110.586 46.4332 112.259 46.8149 113.66 46.1523C115.592 45.2382 117.875 46.3378 118.365 48.4185C118.721 49.9269 120.062 50.9964 121.612 51.0073C123.749 51.0222 125.329 53.0036 124.868 55.0909C124.534 56.6041 125.278 58.1496 126.67 58.8318C128.589 59.7727 129.153 62.2434 127.832 63.924C126.874 65.1423 126.874 66.8577 127.832 68.076C129.153 69.7566 128.589 72.2273 126.67 73.1682C125.278 73.8504 124.534 75.3959 124.868 76.9091C125.329 78.9964 123.749 80.9778 121.612 80.9927C120.062 81.0036 118.721 82.0731 118.365 83.5815C117.875 85.6622 115.592 86.7618 113.66 85.8477C112.259 85.1851 110.586 85.5668 109.612 86.7716C108.267 88.4336 105.733 88.4336 104.388 86.7716C103.414 85.5668 101.741 85.1851 100.34 85.8477C98.4081 86.7618 96.1248 85.6622 95.6346 83.5815C95.2792 82.0731 93.938 81.0036 92.3884 80.9927C90.2508 80.9778 88.6707 78.9964 89.1318 76.9091C89.4661 75.3959 88.7218 73.8504 87.3303 73.1682C85.4108 72.2273 84.8469 69.7566 86.168 68.076C87.1258 66.8577 87.1258 65.1423 86.168 63.924C84.8469 62.2434 85.4108 59.7727 87.3303 58.8318C88.7218 58.1496 89.4661 56.6041 89.1318 55.0909C88.6707 53.0036 90.2508 51.0222 92.3884 51.0073C93.938 50.9964 95.2792 49.9269 95.6346 48.4185C96.1248 46.3378 98.4081 45.2382 100.34 46.1523C101.741 46.8149 103.414 46.4332 104.388 45.2284Z" stroke="#6297FB" stroke-width="0.1" stroke-linecap="round" stroke-linejoin="round"></path></g><path d="M117.497 75.045C117.049 75.5638 116.564 76.049 116.045 76.4967L96.5033 56.9545C96.951 56.4358 97.4362 55.9508 97.9551 55.5033L117.497 75.045ZM107 52.1442C103.915 52.1394 100.918 53.1688 98.4866 55.0678L99.914 56.4951C101.96 54.9658 104.446 54.1413 107 54.1453C113.548 54.1453 118.855 59.4525 118.855 66C118.859 68.554 118.034 71.0405 116.505 73.0861L117.932 74.5134C119.831 72.0824 120.861 69.0849 120.856 66C120.856 58.3476 114.652 52.1442 107 52.1442ZM107 77.8551C100.453 77.8547 95.1454 72.547 95.1454 66C95.1414 63.4459 95.9659 60.9595 97.4952 58.9139L96.0679 57.4866C94.1687 59.9176 93.1392 62.9151 93.1438 66C93.1438 73.6523 99.3477 79.8562 107 79.8562C110.085 79.8609 113.082 78.8313 115.514 76.9322L114.086 75.5048C112.041 77.0342 109.554 77.8592 107 77.8551Z" fill="#96BAFF"></path><path d="M108.469 57.8569V65.0503L104.42 61.0017C105.668 59.7136 107.097 58.32 108.05 57.6398C108.09 57.6118 108.136 57.5951 108.185 57.5918C108.234 57.5885 108.282 57.5986 108.325 57.621C108.369 57.6434 108.405 57.6772 108.43 57.7188C108.456 57.7604 108.469 57.8082 108.469 57.8569ZM102.081 63.4997L108.469 69.8878V74.1431C108.469 74.3587 108.225 74.4848 108.05 74.3602C106.016 72.9098 101.824 68.2148 101.824 68.2148H99.1764C98.9973 68.2148 98.8255 68.1437 98.6988 68.017C98.5721 67.8903 98.501 67.7185 98.501 67.5394V64.4606C98.501 64.0875 98.8033 63.7852 99.1764 63.7852H101.823C101.823 63.7852 101.916 63.6811 102.08 63.4997H102.081ZM111.961 66C111.961 66.7444 111.797 67.4503 111.502 68.0836L109.647 66.2287V61.8094C110.356 62.2552 110.94 62.8734 111.344 63.6063C111.749 64.3393 111.961 65.1628 111.961 66Z" fill="#1C63EB"></path><path d="M109.647 57.9037V59.4581C112.226 60.5105 114.041 63.0441 114.041 66C114.041 67.3247 113.676 68.5641 113.042 69.6234L114.1 70.6809C115.015 69.2915 115.501 67.6637 115.498 66C115.498 62.2266 113.045 59.0245 109.647 57.9037ZM109.647 72.5419V74.0962C110.368 73.8586 111.054 73.5251 111.686 73.1048L110.629 72.0478C110.317 72.2372 109.989 72.4022 109.647 72.5419Z" fill="#1C63EB"></path><circle cx="66" cy="28" r="12" fill="#27272A"></circle><circle cx="66" cy="28" r="9.85" fill="#27272A" stroke="white" stroke-width="0.3" stroke-dasharray="1 1"></circle><g clip-path="url(#clip1_3967_60)"><path d="M66.2367 33.5313C66.6328 33.2793 67.03 33.0285 67.4261 32.7766C67.6054 32.6629 67.7871 32.5504 67.9617 32.4285C68.3765 32.1391 68.7656 31.8098 69.1113 31.4395C69.7957 30.7047 70.316 29.834 70.6453 28.8859C70.9136 28.1113 71.0285 27.2945 71.0285 26.4766V24.9168C71.0285 24.707 70.882 24.5242 70.6839 24.4645C70.541 24.4211 70.3992 24.3766 70.2621 24.3191C70.2996 24.3344 70.3371 24.3508 70.3746 24.366C70.1296 24.2617 69.9 24.1281 69.689 23.9664L69.7839 24.0402C69.5753 23.8785 69.3878 23.6922 69.2261 23.4836L69.3 23.5785C69.1382 23.3676 69.0035 23.1367 68.8992 22.8918C68.9144 22.9293 68.9308 22.9668 68.946 23.0043C68.9109 22.9199 68.8781 22.8332 68.85 22.7465C68.7867 22.5484 68.6097 22.402 68.3976 22.402H64.1917C63.9984 22.402 63.8039 22.3961 63.6105 22.402H63.6023C63.389 22.402 63.2132 22.5484 63.15 22.7465C63.1218 22.8344 63.0902 22.9199 63.0539 23.0043C63.0691 22.9668 63.0855 22.9293 63.1007 22.8918C62.9964 23.1367 62.8617 23.3664 62.7 23.5785L62.7738 23.4836C62.6121 23.6922 62.4246 23.8785 62.216 24.0402L62.3109 23.9664C62.1 24.1281 61.8691 24.2617 61.6253 24.366C61.6628 24.3508 61.7003 24.3344 61.7378 24.3191C61.5996 24.3766 61.4589 24.4211 61.316 24.4645C61.1179 24.5242 60.9714 24.707 60.9714 24.9168V26.3301C60.9714 26.5785 60.9714 26.827 60.989 27.0754C61.0265 27.5805 61.1121 28.0844 61.2539 28.5707C61.5351 29.5363 62.0226 30.4258 62.6695 31.1934C63.1722 31.7898 63.7781 32.2727 64.4343 32.6887L65.7316 33.5113C65.7421 33.5184 65.7539 33.5254 65.7644 33.5324C65.9718 33.6637 66.2906 33.5828 66.4054 33.3637C66.5273 33.1316 66.4582 32.8633 66.2367 32.7227C66.0257 32.5891 65.8148 32.4555 65.605 32.3219C65.3355 32.1508 65.0671 31.9809 64.7976 31.8098C64.6089 31.6902 64.425 31.5625 64.2468 31.4266L64.3417 31.5004C63.8988 31.157 63.5003 30.7586 63.157 30.3156L63.2308 30.4105C62.8816 29.957 62.591 29.4602 62.3671 28.9328C62.3824 28.9703 62.3988 29.0078 62.414 29.0453C62.1855 28.5027 62.0296 27.9332 61.9511 27.3496C61.957 27.3906 61.9628 27.4328 61.9675 27.4738C61.9171 27.0941 61.9089 26.7145 61.9089 26.3336V24.9215C61.7941 25.0727 61.6792 25.2227 61.5644 25.3738C61.9687 25.252 62.3601 25.0902 62.7035 24.843C63.1101 24.55 63.457 24.1891 63.7148 23.7578C63.8566 23.5211 63.9703 23.2633 64.0546 23.0008C63.9035 23.1156 63.7535 23.2305 63.6023 23.3453H67.8082C68.0015 23.3453 68.196 23.35 68.3894 23.3453H68.3976C68.2464 23.2305 68.0964 23.1156 67.9453 23.0008C68.2394 23.9184 68.9074 24.7164 69.7839 25.1289C69.9949 25.2285 70.2117 25.3059 70.4355 25.3738C70.3207 25.2227 70.2058 25.0727 70.091 24.9215V26.5832C70.091 26.8809 70.071 27.1785 70.0324 27.4738C70.0382 27.4328 70.0441 27.3906 70.0488 27.3496C69.9691 27.932 69.8132 28.5027 69.5859 29.0453C69.6011 29.0078 69.6175 28.9703 69.6328 28.9328C69.4089 29.4602 69.1183 29.957 68.7691 30.4105L68.8429 30.3156C68.4996 30.7586 68.1011 31.157 67.6582 31.5004L67.7531 31.4266C67.4906 31.6293 67.2117 31.8039 66.9328 31.982C66.6234 32.1789 66.314 32.3746 66.0046 32.5715C65.925 32.6219 65.8441 32.6734 65.7644 32.7238C65.6625 32.7883 65.5816 32.8855 65.5488 33.0039C65.5183 33.1164 65.5324 33.2652 65.5957 33.3648C65.7292 33.5711 66.0152 33.6719 66.2367 33.5313Z" fill="white"></path><path d="M63.6116 27.9754L64.8151 29.1789L64.9862 29.35C65.1655 29.5293 65.4702 29.5293 65.6495 29.35L66.5788 28.4207L68.0495 26.95L68.3882 26.6113C68.5616 26.4379 68.5745 26.1191 68.3882 25.948C68.2007 25.7758 67.9101 25.7629 67.7249 25.948L66.7956 26.8773L65.3249 28.348L64.9862 28.6867H65.6495L64.446 27.4832L64.2749 27.3121C64.1015 27.1387 63.7827 27.1258 63.6116 27.3121C63.4394 27.4996 63.4265 27.7891 63.6116 27.9754Z" fill="white"></path></g></g><defs><filter id="filter0_d_3967_60" x="61" y="20" width="93" height="104" filterUnits="userSpaceOnUse" color-interpolation-filters="sRGB"><feGaussianBlur stdDeviation="1"></feGaussianBlur></filter><filter id="filter1_d_3967_60" x="79.3989" y="39.9319" width="55.2021" height="56.1362" filterUnits="userSpaceOnUse" color-interpolation-filters="sRGB"><feGaussianBlur stdDeviation="3"></feGaussianBlur></filter><clipPath id="clip0_3967_60"><rect width="206" height="100" fill="white"></rect></clipPath><clipPath id="clip1_3967_60"><rect width="12" height="12" fill="white" transform="translate(60 22)"></rect></clipPath></defs></svg>