<svg xmlns="http://www.w3.org/2000/svg" width="206" height="100" viewBox="0 0 206 100" fill="none"><g clip-path="url(#clip0_4114_789)"><path d="M194 0H12C5.37258 0 0 5.37258 0 12V88C0 94.6274 5.37258 100 12 100H194C200.627 100 206 94.6274 206 88V12C206 5.37258 200.627 0 194 0Z" fill="white"></path><g clip-path="url(#clip1_4114_789)"><path d="M132.996 64.8332C132.996 65.1617 132.986 65.8742 132.967 66.4245C132.918 67.7711 132.812 69.5089 132.65 70.3006C132.408 71.4904 132.041 72.6134 131.564 73.5481C130.999 74.6539 130.278 75.6443 129.422 76.4991C128.567 77.3523 127.578 78.0702 126.474 78.6329C125.534 79.1117 124.404 79.4782 123.207 79.7198C122.423 79.878 120.699 79.9827 119.361 80.0303C118.81 80.05 118.097 80.0599 117.77 80.0599L88.2254 80.0551C87.8969 80.0551 87.1845 80.0451 86.6341 80.0253C85.2875 79.977 83.5498 79.8703 82.758 79.7089C81.5682 79.4662 80.4452 79.1 79.5105 78.6225C78.4047 78.0574 77.4143 77.3367 76.5595 76.4803C75.7063 75.6257 74.9884 74.6363 74.4258 73.5322C73.9468 72.5925 73.5804 71.4625 73.3388 70.2659C73.1806 69.4821 73.0759 67.7574 73.0283 66.4193C73.0087 65.8685 72.9988 65.1559 72.9988 64.8286L73.0035 35.284C73.0035 34.9555 73.0135 34.243 73.0332 33.6927C73.0816 32.346 73.1883 30.6083 73.3497 29.8166C73.5923 28.6268 73.9585 27.5038 74.4361 26.569C75.0012 25.4633 75.7219 24.4728 76.5783 23.618C77.4328 22.7649 78.4223 22.047 79.5264 21.4842C80.4661 21.0054 81.5962 20.639 82.7927 20.3974C83.5765 20.2391 85.3012 20.1344 86.6393 20.0868C87.1902 20.0672 87.9029 20.0573 88.23 20.0573L117.775 20.0621C118.103 20.0621 118.816 20.0721 119.366 20.0918C120.713 20.1402 122.45 20.2469 123.242 20.4083C124.432 20.6509 125.555 21.0171 126.49 21.4947C127.595 22.0598 128.586 22.7805 129.441 23.6369C130.294 24.4914 131.012 25.4809 131.574 26.585C132.053 27.5247 132.42 28.6547 132.661 29.8513C132.819 30.6351 132.924 32.3598 132.972 33.6979C132.991 34.2488 133.001 34.9614 133.001 35.2887L132.996 64.8332V64.8332Z" fill="url(#paint0_linear_4114_789)"></path><path d="M118.897 34.2527C114.834 30.1871 109.432 27.9469 103.676 27.9446C91.8166 27.9446 82.1644 37.5931 82.1597 49.4527C82.1581 53.2437 83.1489 56.9442 85.0317 60.206L81.9792 71.3522L93.3854 68.3612C96.5281 70.0747 100.066 70.9777 103.668 70.9793H103.676C115.535 70.9793 125.188 61.3296 125.193 49.4698C125.195 43.7226 122.959 38.3183 118.897 34.2527ZM103.676 67.3465H103.669C100.46 67.3453 97.3126 66.4835 94.5669 64.8546L93.9138 64.4671L87.1452 66.2421L88.9519 59.6449L88.5266 58.9685C86.7364 56.1221 85.7909 52.8321 85.7924 49.4541C85.7962 39.597 93.8188 31.5774 103.683 31.5774C108.46 31.5792 112.95 33.4413 116.327 36.8205C119.703 40.1997 121.561 44.6915 121.56 49.4685C121.556 59.3265 113.533 67.3465 103.676 67.3465ZM113.486 53.9569C112.948 53.6879 110.305 52.3877 109.812 52.2083C109.319 52.0289 108.961 51.9393 108.603 52.4774C108.244 53.0154 107.214 54.226 106.9 54.5847C106.587 54.9434 106.273 54.9883 105.735 54.7192C105.198 54.4502 103.466 53.8827 101.412 52.0517C99.8139 50.6267 98.7348 48.8666 98.4212 48.3284C98.1076 47.7904 98.3879 47.4996 98.657 47.2316C98.8988 46.9908 99.1946 46.6038 99.4634 46.29C99.7322 45.9763 99.8219 45.752 100.001 45.3933C100.18 45.0346 100.091 44.7207 99.9562 44.4517C99.8219 44.1827 98.7466 41.5373 98.2986 40.4612C97.8623 39.4132 97.4189 39.555 97.0889 39.5386C96.7757 39.523 96.4169 39.5197 96.0586 39.5197C95.7002 39.5197 95.1177 39.6542 94.625 40.1922C94.1322 40.7303 92.7433 42.0305 92.7433 44.6759C92.7433 47.3212 94.6697 49.8769 94.9385 50.2355C95.2074 50.5943 98.7295 56.0229 104.123 58.3509C105.405 58.9046 106.407 59.2353 107.188 59.483C108.475 59.892 109.647 59.8343 110.574 59.696C111.607 59.5417 113.755 58.3958 114.203 57.1404C114.651 55.8849 114.651 54.8089 114.516 54.5847C114.382 54.3605 114.023 54.226 113.486 53.9569Z" fill="white"></path></g></g><defs><linearGradient id="paint0_linear_4114_789" x1="103" y1="20.0573" x2="103" y2="80.0599" gradientUnits="userSpaceOnUse"><stop stop-color="#61FD7D"></stop><stop offset="1" stop-color="#2BB826"></stop></linearGradient><clipPath id="clip0_4114_789"><rect width="206" height="100" fill="white"></rect></clipPath><clipPath id="clip1_4114_789"><rect width="60" height="60" fill="white" transform="translate(73 20)"></rect></clipPath></defs></svg>